<!DOCTYPE svg PUBLIC "-//W3C//DTD SVG 20010904//EN" "http://www.w3.org/TR/2001/REC-SVG-20010904/DTD/svg10.dtd">
<svg version="1.0" xmlns="http://www.w3.org/2000/svg" width="360px" height="360px" viewBox="0 0 3600 3600" preserveAspectRatio="xMidYMid meet">
<g id="layer101" fill="#0f0f0f" stroke="none">
 <path d="M0 1800 l0 -1800 1800 0 1800 0 0 1800 0 1800 -1800 0 -1800 0 0 -1800z"/>
 </g>
<g id="layer102" fill="#313131" stroke="none">
 <path d="M0 1800 l0 -1800 1800 0 1800 0 0 1800 0 1800 -676 0 -675 0 6 -33 6 -32 -15 33 -15 32 -201 0 c-110 0 -200 -1 -200 -3 0 -2 13 -43 30 -92 16 -49 28 -90 26 -92 -3 -3 -36 67 -70 150 l-15 37 -119 0 -120 0 75 -137 c87 -159 118 -207 183 -283 32 -38 49 -67 53 -95 l6 -40 -16 30 c-9 17 -28 46 -43 65 -55 71 -157 229 -219 343 l-65 117 -218 0 -218 0 15 -36 c27 -65 110 -156 155 -169 14 -4 39 -18 55 -30 17 -13 71 -44 122 -70 105 -54 115 -62 141 -130 16 -42 27 -54 71 -78 29 -16 55 -26 59 -23 3 4 -14 24 -38 46 -25 22 -40 39 -34 40 6 0 29 -18 50 -41 22 -22 55 -52 74 -65 19 -13 45 -31 57 -40 15 -11 32 -14 49 -10 21 6 25 11 21 32 -4 23 -2 25 26 18 28 -6 29 -4 25 19 -4 18 -1 24 9 20 20 -8 46 17 33 32 -11 14 2 30 14 18 24 -25 -50 -118 -132 -165 -28 -17 -30 -17 -53 3 -13 11 -69 45 -125 75 -100 53 -102 56 -124 109 -26 65 -57 93 -154 142 -39 20 -82 44 -95 54 -13 11 -40 23 -60 29 -48 13 -103 68 -152 152 l-40 68 -534 0 -535 0 0 -1800z m2448 1744 c-4 -3 -12 5 -18 18 -12 22 -12 22 6 6 10 -10 15 -20 12 -24z m942 21 c-14 -8 -29 -14 -35 -14 -5 0 1 6 15 14 14 8 30 14 35 14 6 0 -1 -6 -15 -14z m-50 -19 c0 -2 -7 -7 -16 -10 -8 -3 -12 -2 -9 4 6 10 25 14 25 6z m-53 -23 c-4 -3 -10 -3 -14 0 -3 4 0 7 7 7 7 0 10 -3 7 -7z m-750 -66 c33 -55 69 -88 138 -127 73 -42 65 -50 -11 -11 -59 30 -113 84 -156 157 -30 51 -4 33 29 -19z m516 46 c-7 -2 -19 -2 -25 0 -7 3 -2 5 12 5 14 0 19 -2 13 -5z m-718 -157 c23 -52 46 -108 49 -123 7 -27 7 -27 -8 -8 -8 11 -16 23 -16 28 0 4 -9 26 -20 50 -23 49 -63 163 -54 155 3 -4 25 -49 49 -102z m1122 52 c-3 -8 -6 -5 -6 6 -1 11 2 17 5 13 3 -3 4 -12 1 -19z m-1507 -89 c17 -28 29 -56 27 -62 -3 -10 -47 60 -60 96 -11 30 0 18 33 -34z m1429 36 c-13 -13 -68 -31 -154 -49 l-30 -6 26 15 c15 8 41 17 58 20 18 3 47 12 64 19 43 19 54 19 36 1z m-1233 -102 c29 -65 63 -132 106 -210 15 -29 28 -58 28 -66 0 -8 14 -32 31 -53 31 -38 53 -83 46 -91 -7 -7 -87 108 -93 135 -4 15 -20 52 -35 82 -15 30 -44 91 -65 135 -36 76 -38 79 -44 50 -6 -26 -7 -23 -11 23 -2 28 -1 52 3 52 4 0 19 -26 34 -57z m-876 13 c0 -3 -4 -8 -10 -11 -5 -3 -10 -1 -10 4 0 6 5 11 10 11 6 0 10 -2 10 -4z m105 -16 c20 -22 14 -26 -14 -8 -26 16 -47 5 -55 -29 -4 -15 -22 -51 -41 -79 -18 -28 -43 -74 -55 -102 -12 -28 -29 -57 -38 -64 -14 -12 -14 -11 0 12 9 14 21 43 28 65 7 22 16 42 19 45 16 12 71 108 71 123 0 18 38 57 55 57 7 0 20 -9 30 -20z m128 -111 l62 -61 -62 50 c-34 28 -72 60 -85 72 l-23 22 23 -11 c12 -7 51 -39 85 -72z m534 66 c9 -25 -4 -29 -17 -6 -7 15 -7 21 0 21 6 0 13 -7 17 -15z m80 -45 c0 -22 -3 -40 -8 -40 -5 0 -9 18 -9 40 0 52 15 52 17 0z m693 -6 c22 -15 40 -28 40 -30 0 -9 -61 20 -76 37 -24 26 -11 24 36 -7z m255 16 c8 -13 -45 -13 -65 0 -11 7 -6 10 22 10 20 0 40 -4 43 -10z m175 -14 c0 -2 -11 -6 -25 -8 -14 -3 -25 -1 -25 3 0 5 11 9 25 9 14 0 25 -2 25 -4z m107 -88 c-32 -57 -63 -78 -127 -83 -55 -4 -55 -4 -12 5 33 7 58 23 100 65 30 30 57 55 59 55 2 0 -7 -19 -20 -42z m-2308 -37 c-30 -34 -64 -80 -76 -103 -17 -32 -23 -38 -23 -21 0 22 45 87 108 155 57 62 49 35 -9 -31z m1629 14 c-3 -3 -9 2 -12 12 -6 14 -5 15 5 6 7 -7 10 -15 7 -18z m-998 -35 c8 -5 11 -10 5 -10 -5 0 -21 10 -35 21 -24 20 -5 13 30 -11z m1122 -85 c6 -11 -10 0 -36 25 -25 24 -46 49 -46 54 0 13 69 -53 82 -79z m-70 -20 c6 -11 -12 3 -41 32 -28 29 -51 55 -51 59 0 12 80 -67 92 -91z m-1315 69 c-3 -3 -12 -4 -19 -1 -8 3 -5 6 6 6 11 1 17 -2 13 -5z m382 -61 c2 -2 2 -5 0 -8 -3 -2 -23 14 -45 38 l-39 42 40 -35 c22 -19 42 -36 44 -37z m-432 50 c-4 -3 -10 -3 -14 0 -3 4 0 7 7 7 7 0 10 -3 7 -7z m-72 -32 c-64 -37 -70 -44 -89 -111 l-15 -55 6 50 c3 28 10 58 15 67 9 18 104 78 123 78 6 0 -13 -13 -40 -29z m-135 -22 c-13 -46 -47 -231 -55 -295 -5 -38 -15 -60 -38 -86 -18 -19 -42 -48 -53 -64 l-22 -29 5 28 c3 15 10 27 17 27 17 1 63 71 74 115 6 22 13 72 16 110 2 39 12 87 20 107 9 21 16 46 16 57 0 20 21 74 26 68 2 -2 -1 -19 -6 -38z m1387 -75 c-6 -6 -67 76 -67 89 0 6 16 -11 36 -37 20 -26 34 -50 31 -52z m-674 24 c-4 -22 48 -77 187 -198 l25 -21 -31 16 c-34 19 -61 41 -159 133 -36 34 -62 62 -57 62 6 0 12 9 15 21 7 28 26 16 20 -13z m912 2 c3 -5 2 -10 -4 -10 -5 0 -13 5 -16 10 -3 6 -2 10 4 10 5 0 13 -4 16 -10z m-470 -70 c4 -14 18 -45 31 -69 18 -32 21 -47 13 -52 -14 -8 -8 -69 16 -174 29 -125 32 -275 5 -275 -6 0 -10 42 -10 103 0 108 -45 393 -74 476 -9 24 -16 46 -16 49 0 13 28 -34 35 -58z m-1340 12 c2 -28 1 -30 -9 -16 -17 22 -48 14 -63 -16 -12 -24 -13 -24 -13 -3 0 22 55 76 73 70 5 -1 11 -17 12 -35z m700 28 c-3 -5 -21 -10 -38 -9 -31 1 -31 1 -7 9 36 11 52 11 45 0z m-1212 -44 c-3 -15 -13 -26 -29 -29 l-23 -4 22 28 c27 35 36 36 30 5z m2412 4 c17 -7 15 -9 -12 -9 -17 -1 -35 4 -38 9 -7 12 22 12 50 0z m42 -17 c-4 -3 -10 -3 -14 0 -3 4 0 7 7 7 7 0 10 -3 7 -7z m-367 -133 c5 0 21 -12 37 -28 15 -15 39 -35 53 -44 l25 -18 -26 9 c-58 20 -119 68 -186 145 -62 71 -53 71 23 -1 36 -35 69 -63 74 -63z m70 76 c-1 -6 -10 0 -20 13 -11 13 -20 28 -20 35 1 6 10 0 20 -13 11 -13 20 -28 20 -35z m-2027 37 c-13 -2 -35 -2 -50 0 -16 2 -5 4 22 4 28 0 40 -2 28 -4z m2451 -21 c5 -3 1 -9 -9 -15 -12 -7 -20 -5 -26 4 -17 28 -3 32 35 11z m-2269 -13 c44 -16 62 -19 85 -10 17 5 32 6 35 1 13 -21 -63 -21 -128 0 -62 20 -81 30 -57 30 5 0 34 -9 65 -21z m289 -20 c-3 -6 -10 -34 -14 -63 l-8 -51 -1 47 c-1 51 6 78 21 78 5 0 6 -5 2 -11z m1866 -19 c-8 -5 -22 -10 -30 -10 -13 0 -13 1 0 10 8 5 22 10 30 10 13 0 13 -1 0 -10z m-2473 -17 c-4 -3 -10 -3 -14 0 -3 4 0 7 7 7 7 0 10 -3 7 -7z m520 -40 c-3 -10 -5 -2 -5 17 0 19 2 27 5 18 2 -10 2 -26 0 -35z m1442 -12 c0 -14 -1 -14 -6 -1 -3 8 -10 24 -15 35 -9 20 -9 20 6 1 9 -11 16 -27 15 -35z m287 -44 c59 -124 58 -141 -17 -185 l-36 -22 5 25 c4 26 22 45 22 25 0 -7 7 -7 23 1 25 13 37 28 37 47 0 18 -27 15 -40 -5 -10 -16 -11 -16 -4 2 16 44 16 76 1 93 -9 9 -19 29 -22 45 -4 15 -11 30 -16 33 -5 3 -9 10 -9 15 0 24 24 -9 56 -74z m-558 48 c5 -26 108 -129 122 -120 6 4 10 -4 10 -19 0 -14 5 -26 10 -26 6 0 10 -12 10 -27 -1 -28 -1 -28 -16 6 -8 19 -54 74 -103 123 -77 77 -86 89 -63 86 18 -2 28 -10 30 -23z m-1148 -60 c0 -5 -5 -3 -10 5 -5 8 -10 20 -10 25 0 6 5 3 10 -5 5 -8 10 -19 10 -25z m1440 0 c0 -5 -5 -3 -10 5 -5 8 -10 20 -10 25 0 6 5 3 10 -5 5 -8 10 -19 10 -25z m-1461 -133 c8 7 2 -9 -13 -37 -14 -27 -35 -75 -45 -105 -11 -30 -20 -47 -20 -37 -1 10 6 34 14 54 8 19 15 43 15 53 0 10 7 21 16 24 16 6 16 14 -1 61 -5 16 -4 16 7 -3 11 -18 16 -20 27 -10z m1613 -49 c-11 -21 -28 -46 -38 -55 -19 -17 -105 -50 -112 -43 -10 10 12 25 36 25 39 0 67 23 99 80 32 57 44 51 15 -7z m-277 7 c3 -5 4 -10 1 -10 -3 0 -8 5 -11 10 -3 6 -4 10 -1 10 3 0 8 -4 11 -10z m325 -24 c0 -3 -5 -8 -12 -12 -7 -4 -8 -3 -4 4 7 12 16 16 16 8z m-805 -96 c18 -8 18 -9 -5 -8 -14 0 -38 4 -55 8 l-30 8 35 0 c19 0 44 -3 55 -8z m-248 -7 c-4 -3 -10 -3 -14 0 -3 4 0 7 7 7 7 0 10 -3 7 -7z m106 0 c-13 -2 -35 -2 -50 0 -16 2 -5 4 22 4 28 0 40 -2 28 -4z m-226 -20 c-4 -3 -10 -3 -14 0 -3 4 0 7 7 7 7 0 10 -3 7 -7z m-607 -45 c0 -4 6 -8 13 -8 9 0 11 -12 9 -40 -5 -45 -22 -55 -22 -12 -1 15 -7 45 -15 67 -12 35 -12 38 1 21 7 -11 14 -23 14 -28z m567 35 c-4 -3 -10 -3 -14 0 -3 4 0 7 7 7 7 0 10 -3 7 -7z m-50 -10 c-4 -3 -10 -3 -14 0 -3 4 0 7 7 7 7 0 10 -3 7 -7z m-1217 -109 c0 -2 -9 0 -20 6 -11 6 -20 13 -20 16 0 2 9 0 20 -6 11 -6 20 -13 20 -16z m25 -14 c3 -5 4 -10 1 -10 -3 0 -8 5 -11 10 -3 6 -4 10 -1 10 3 0 8 -4 11 -10z m676 -150 c-4 -74 -9 -110 -10 -79 0 30 -7 61 -13 68 -10 11 -10 13 0 7 17 -10 15 34 -3 58 -13 17 -13 21 5 33 11 8 20 26 21 41 0 15 2 23 5 17 2 -5 0 -71 -5 -145z m-484 63 c-4 -3 -10 -3 -14 0 -3 4 0 7 7 7 7 0 10 -3 7 -7z m1318 -17 c-16 -7 -34 -11 -40 -8 -5 4 1 9 15 13 42 12 57 9 25 -5z m-1048 -33 c-4 -3 -10 -3 -14 0 -3 4 0 7 7 7 7 0 10 -3 7 -7z m1143 -110 c-11 -17 -11 -17 -6 0 3 10 7 31 7 45 l2 27 4 -27 c2 -15 -1 -35 -7 -45z m664 -82 c-6 -6 -24 19 -24 34 1 6 7 1 15 -9 8 -11 12 -22 9 -25z m-1584 -43 c0 -62 -5 -60 -13 5 -4 28 -3 47 3 47 6 0 10 -23 10 -52z m1326 16 c19 -15 19 -15 -1 -6 -11 5 -27 12 -35 15 -13 5 -13 6 1 6 8 1 24 -6 35 -15z m39 -24 c3 -5 4 -10 1 -10 -3 0 -8 5 -11 10 -3 6 -4 10 -1 10 3 0 8 -4 11 -10z m236 -23 c-10 -9 -11 -8 -5 6 3 10 9 15 12 12 3 -3 0 -11 -7 -18z m-673 -7 c-71 -38 -107 -113 -85 -179 l13 -36 -56 -2 c-70 -2 -126 -23 -209 -75 -70 -44 -162 -72 -271 -82 -81 -7 -74 -4 75 30 139 32 171 44 214 80 24 20 31 34 31 60 0 54 -44 130 -88 153 -20 11 -32 20 -26 21 45 1 148 -124 138 -167 -5 -20 -2 -23 22 -23 23 0 26 2 14 10 -12 8 -9 10 11 10 54 0 87 20 103 61 9 22 16 46 16 53 0 22 46 71 82 89 47 23 61 20 16 -3z m473 3 c13 -16 12 -17 -3 -4 -17 13 -22 21 -14 21 2 0 10 -8 17 -17z m-938 -30 c-7 -2 -19 -2 -25 0 -7 3 -2 5 12 5 14 0 19 -2 13 -5z m1046 -62 c0 -3 -20 -20 -44 -38 l-43 -31 14 35 c11 26 13 43 5 64 l-10 28 40 -26 c21 -14 39 -28 38 -32z m-1242 42 c-4 -3 -10 -3 -14 0 -3 4 0 7 7 7 7 0 10 -3 7 -7z m-30 -10 c-4 -3 -10 -3 -14 0 -3 4 0 7 7 7 7 0 10 -3 7 -7z m1440 -10 c-4 -3 -7 0 -7 7 0 7 3 10 7 7 3 -4 3 -10 0 -14z m-1678 -55 c2 -80 7 -95 31 -101 12 -3 20 -14 20 -25 0 -11 3 -29 6 -39 6 -15 4 -16 -7 -5 -7 6 -22 12 -33 12 -19 0 -19 1 -1 13 11 9 14 16 7 21 -22 13 -39 -5 -40 -47 -1 -23 -6 -55 -11 -72 -7 -26 -9 -22 -16 39 -6 59 -5 71 9 81 12 10 16 30 16 92 0 67 4 93 15 93 1 0 3 -28 4 -62z m1578 25 c-4 -3 -7 0 -7 7 0 7 3 10 7 7 3 -4 3 -10 0 -14z m-1455 -35 c-7 -7 -12 -20 -12 -29 0 -9 -10 -19 -22 -23 -38 -10 -44 -7 -18 11 14 9 31 25 38 35 7 10 16 18 20 18 3 0 1 -5 -6 -12z m1042 -17 c3 -5 -10 -9 -29 -8 -21 1 -30 4 -22 9 16 10 45 10 51 -1z m126 -11 c0 -5 -10 -15 -22 -21 -23 -12 -23 -12 -4 10 21 23 26 26 26 11z m279 -43 c-2 -3 -15 10 -28 27 l-24 31 28 -27 c16 -15 27 -29 24 -31z m-159 23 c0 -5 -10 -15 -22 -21 -23 -12 -23 -12 -4 10 21 23 26 26 26 11z m-180 -16 c0 -2 -9 -4 -20 -4 -11 0 -20 4 -20 9 0 5 9 7 20 4 11 -3 20 -7 20 -9z m127 -21 c-4 -3 -10 -3 -14 0 -3 4 0 7 7 7 7 0 10 -3 7 -7z m280 -15 c-3 -8 -6 -5 -6 6 -1 11 2 17 5 13 3 -3 4 -12 1 -19z m-1181 -13 l27 -25 -52 0 c-54 0 -70 18 -33 39 24 15 28 14 58 -14z m487 8 c23 -12 58 -17 129 -17 115 -1 117 -15 3 -18 -68 -2 -88 2 -135 24 -30 15 -49 27 -42 27 7 1 27 -7 45 -16z m387 12 c0 -8 -58 -35 -75 -35 -31 0 -14 17 28 27 23 6 43 11 45 12 1 0 2 -1 2 -4z m-1202 -33 c3 -16 -1 -20 -12 -16 -19 7 -22 48 -3 42 6 -3 13 -14 15 -26z m1089 2 c-3 -3 -12 -4 -19 -1 -8 3 -5 6 6 6 11 1 17 -2 13 -5z m442 -49 c0 -5 -4 -3 -9 5 -5 8 -9 22 -9 30 0 16 17 -16 18 -35z m-1379 5 c13 -8 13 -10 -2 -10 -9 0 -20 5 -23 10 -8 13 5 13 25 0z m937 -17 c-4 -3 -10 -3 -14 0 -3 4 0 7 7 7 7 0 10 -3 7 -7z m-40 -10 c-4 -3 -10 -3 -14 0 -3 4 0 7 7 7 7 0 10 -3 7 -7z m493 -40 c0 -23 -4 -33 -9 -27 -9 8 -4 64 5 64 2 0 4 -17 4 -37z m-1515 17 c3 -5 25 -11 48 -12 36 -1 37 -2 10 -5 -17 -2 -51 3 -75 11 -36 13 -39 15 -16 16 15 0 30 -4 33 -10z m462 -7 c-4 -3 -10 -3 -14 0 -3 4 0 7 7 7 7 0 10 -3 7 -7z m-537 -48 c0 -19 -4 -35 -8 -35 -4 0 -8 16 -9 35 -1 19 3 35 8 35 5 0 9 -16 9 -35z m397 -2 c-4 -3 -10 -3 -14 0 -3 4 0 7 7 7 7 0 10 -3 7 -7z m-34 -10 c-7 -2 -21 -2 -30 0 -10 3 -4 5 12 5 17 0 24 -2 18 -5z m-196 -10 c-4 -3 -10 -3 -14 0 -3 4 0 7 7 7 7 0 10 -3 7 -7z m-232 -46 c19 -4 19 -5 -1 -6 -11 0 -29 9 -40 22 -19 22 -19 22 1 6 11 -10 29 -19 40 -22z m1662 6 c-4 -3 -7 0 -7 7 0 7 3 10 7 7 3 -4 3 -10 0 -14z m10 -100 c-2 -16 -4 -5 -4 22 0 28 2 40 4 28 2 -13 2 -35 0 -50z m-1670 40 c-4 -3 -7 0 -7 7 0 7 3 10 7 7 3 -4 3 -10 0 -14z m0 -60 c1 -24 1 -25 -7 -8 -11 26 -12 35 -2 35 4 0 8 -12 9 -27z m99 -51 c-12 -11 -18 7 -10 30 l8 23 4 -23 c2 -13 1 -26 -2 -30z m1564 -22 c11 -7 15 -34 16 -112 l2 -103 -7 84 c-3 51 -11 86 -18 88 -7 3 -9 11 -6 20 3 8 0 19 -8 24 -8 5 -9 9 -4 9 6 0 17 -4 25 -10z m-1632 -262 c12 -24 22 -51 22 -59 -1 -8 -7 0 -14 17 -17 39 -33 49 -51 34 -12 -10 -10 -19 16 -57 17 -24 39 -47 49 -51 9 -4 30 -22 45 -40 19 -22 34 -32 47 -29 10 3 16 1 12 -4 -12 -20 -49 -7 -87 33 -36 37 -41 40 -52 25 -13 -18 -55 -23 -55 -7 0 6 7 10 15 10 8 0 15 4 15 9 0 5 3 18 7 28 3 10 2 15 -2 10 -5 -4 -14 7 -20 25 -7 18 -15 40 -19 49 -5 11 -1 18 11 21 16 4 18 14 17 64 -2 32 1 77 4 99 6 34 8 27 13 -46 4 -58 13 -101 27 -131z m1577 182 c-3 -5 -12 -10 -18 -10 -7 0 -6 4 3 10 19 12 23 12 15 0z m-21 -75 c-9 -14 -26 -31 -38 -37 -14 -7 -10 1 13 26 41 42 48 45 25 11z m-1435 -75 l16 -25 -27 18 c-15 9 -34 17 -43 17 -9 0 -13 5 -10 11 11 17 47 6 64 -21z m1527 -62 c-2 -43 -10 -81 -28 -118 -24 -52 -77 -120 -94 -120 -4 0 6 15 23 33 35 37 63 87 63 115 0 10 5 23 11 29 6 6 10 36 10 67 0 31 4 56 9 56 4 0 7 -28 6 -62z m-71 6 c22 -10 25 -13 10 -14 -27 0 -88 38 -80 50 4 6 13 4 23 -6 9 -9 30 -23 47 -30z m-106 -20 c-17 -21 -31 -17 -19 6 6 11 15 18 21 14 6 -4 6 -11 -2 -20z m-1189 -182 c30 -23 64 -47 75 -52 16 -7 17 -9 3 -9 -9 -1 -30 11 -45 25 -40 37 -70 47 -107 34 -23 -8 -33 -7 -45 4 -12 13 -10 14 17 11 17 -2 34 0 37 4 2 5 -13 42 -34 82 -34 65 -42 74 -65 72 -35 -2 -34 15 2 19 24 3 31 -4 67 -72 30 -55 54 -86 95 -118z m1115 140 c-6 -4 -23 -18 -40 -32 -22 -19 -26 -20 -15 -5 19 25 42 44 55 45 6 0 6 -3 0 -8z m173 -6 c5 -6 -7 -26 -16 -26 -4 0 -18 10 -32 21 l-25 21 34 -6 c19 -4 36 -8 39 -10z m-66 -49 c7 -2 10 -8 5 -12 -10 -12 -61 28 -65 51 -3 16 1 15 22 -7 14 -15 31 -29 38 -32z m-1345 -24 c-4 -3 -10 -3 -14 0 -3 4 0 7 7 7 7 0 10 -3 7 -7z m685 -40 c10 -9 18 -20 18 -25 0 -13 -28 -9 -33 5 -4 9 -8 9 -15 -1 -7 -11 -10 -11 -15 2 -4 9 -14 16 -24 17 -12 1 -10 3 7 9 37 12 42 11 62 -7z m118 7 c0 -5 -4 -10 -9 -10 -6 0 -13 5 -16 10 -3 6 1 10 9 10 9 0 16 -4 16 -10z m-276 -21 c-31 -12 -40 -9 -20 6 10 8 24 11 29 8 6 -4 2 -10 -9 -14z m-625 -38 c-15 -5 -22 6 -14 19 6 9 10 9 16 -1 5 -8 4 -15 -2 -18z m1121 -1 c-28 -8 -35 -6 -26 8 3 6 16 7 29 4 22 -6 22 -6 -3 -12z m228 4 c7 -5 -33 -53 -43 -54 -14 0 -35 21 -35 34 0 6 5 5 12 -2 17 -17 38 -15 38 3 0 8 -4 15 -10 15 -5 0 -10 5 -10 11 0 9 36 4 48 -7z m97 -4 c-3 -5 -17 -10 -31 -10 -13 0 -24 5 -24 10 0 6 14 10 31 10 17 0 28 -4 24 -10z m-915 -10 c0 -5 -12 -10 -27 -10 -22 0 -25 2 -13 10 20 13 40 13 40 0z m-584 -12 c5 -8 2 -9 -9 -5 -10 4 -17 1 -17 -5 0 -6 -3 -9 -6 -5 -7 7 4 27 16 27 5 0 12 -5 16 -12z m514 -5 c-8 -3 -24 -13 -35 -22 -20 -16 -20 -16 -1 7 11 12 26 22 35 21 14 0 14 -1 1 -6z m218 -2 c8 -5 12 -15 10 -24 -2 -12 -7 -10 -21 9 -18 24 -13 31 11 15z m287 -23 l40 -30 -40 6 c-22 3 -46 13 -52 23 -32 43 -3 44 52 1z m245 17 c24 -14 24 -14 3 -15 -28 0 -53 10 -53 21 0 13 21 10 50 -6z m-1005 -18 c-2 -7 -9 -32 -16 -57 -9 -38 -13 -42 -19 -25 -9 23 -77 49 -94 36 -24 -18 -146 -1 -146 21 0 7 6 6 15 -2 11 -9 41 -10 115 -5 91 7 103 10 117 31 15 24 36 25 28 1z m664 -8 c-8 -5 -28 -9 -46 -9 -17 0 -35 -4 -38 -10 -3 -5 -12 -10 -18 -10 -7 0 1 12 17 26 16 14 37 24 46 21 10 -2 24 -1 31 4 9 5 15 4 18 -2 2 -6 -3 -15 -10 -20z m582 -1 c-3 -21 -6 -26 -9 -15 -3 17 3 47 11 47 2 0 1 -15 -2 -32z m-313 -7 c3 -8 -1 -12 -9 -9 -7 2 -15 10 -17 17 -3 8 1 12 9 9 7 -2 15 -10 17 -17z m-554 -4 c-7 -18 -64 -61 -64 -48 0 8 58 60 67 61 1 0 0 -6 -3 -13z m826 -32 c0 -26 -84 -83 -95 -65 -3 6 14 19 39 30 44 18 58 41 35 55 -5 4 -27 -1 -47 -11 -59 -28 -99 -34 -119 -17 -16 12 -13 14 27 10 32 -2 57 4 90 20 42 21 46 22 58 6 6 -9 12 -22 12 -28z m-1120 26 c0 -6 -4 -13 -10 -16 -5 -3 -10 1 -10 9 0 9 5 16 10 16 6 0 10 -4 10 -9z m760 -25 c0 -11 -33 -36 -46 -36 -20 0 -7 19 20 30 27 11 26 11 26 6z m-144 -27 c19 -22 19 -22 -3 -10 -13 6 -23 16 -23 21 0 15 5 12 26 -11z m551 -1 c-3 -8 -6 -5 -6 6 -1 11 2 17 5 13 3 -3 4 -12 1 -19z m-622 2 c28 0 28 -1 12 -17 -13 -14 -35 -18 -90 -19 -66 -1 -86 6 -87 29 0 4 8 2 18 -4 14 -9 25 -8 48 5 16 8 38 14 49 11 11 -3 33 -5 50 -5z m269 4 c8 -3 12 -12 9 -20 -4 -11 -9 -12 -19 -3 -8 6 -14 15 -14 20 0 11 3 11 24 3z m-814 -21 c0 -15 -17 -35 -26 -31 -5 1 -10 -9 -12 -24 -4 -30 -11 -35 -29 -17 -7 7 -1 20 20 45 29 32 47 43 47 27z m358 -38 c3 -16 1 -18 -9 -7 -8 7 -39 12 -74 12 -47 0 -66 -5 -83 -20 -17 -16 -28 -18 -59 -12 l-38 8 60 21 c40 13 83 20 130 19 61 -1 70 -3 73 -21z m819 3 c-3 -8 -6 -5 -6 6 -1 11 2 17 5 13 3 -3 4 -12 1 -19z m-433 -14 c7 -19 2 -18 -19 6 -16 17 -16 20 -3 15 9 -4 19 -13 22 -21z m178 6 c75 3 100 -1 53 -10 -22 -4 -56 -10 -76 -14 -27 -6 -40 -4 -53 9 -19 20 -11 42 10 25 7 -7 37 -11 66 -10z m-1035 -7 c-4 -3 -7 0 -7 7 0 7 3 10 7 7 3 -4 3 -10 0 -14z m135 -5 c-7 -7 -12 -8 -12 -2 0 14 12 26 19 19 2 -3 -1 -11 -7 -17z m668 3 c7 -13 7 -22 0 -26 -6 -3 -13 1 -16 10 -4 10 -13 13 -25 10 -10 -4 -29 1 -41 9 -22 15 -21 16 24 16 37 0 50 -4 58 -19z m-373 -17 c38 -15 60 -44 33 -44 -19 0 -10 -32 10 -37 11 -3 20 -10 20 -15 0 -6 -28 -8 -67 -5 -72 4 -113 28 -113 65 0 18 3 17 31 -9 35 -33 44 -32 34 2 -6 17 -9 19 -16 8 -7 -11 -9 -9 -9 7 0 18 17 44 29 44 3 0 25 -7 48 -16z m-410 -1 c-4 -3 -10 -3 -14 0 -3 4 0 7 7 7 7 0 10 -3 7 -7z m553 -2 c0 -9 -24 -21 -41 -21 -5 0 -9 7 -9 15 0 9 9 15 25 15 14 0 25 -4 25 -9z m82 -17 c-40 -24 -42 -27 -25 -40 16 -12 15 -13 -17 -13 l-35 0 43 39 c24 22 51 40 60 40 10 0 -2 -12 -26 -26z m555 -10 c-3 -3 -16 -4 -29 -2 l-23 5 25 10 c23 10 41 1 27 -13z m-1032 -3 c-3 -6 -11 -11 -17 -11 -6 0 -6 6 2 15 14 17 26 13 15 -4z m625 -20 c51 -7 53 -8 25 -15 -16 -4 -36 -10 -43 -12 -7 -2 -26 3 -42 11 -16 8 -41 15 -55 15 -16 0 -24 4 -19 11 4 7 20 8 43 5 20 -4 61 -10 91 -15z m155 -1 c28 -31 10 -36 -25 -6 -26 21 -28 26 -12 26 10 0 27 -9 37 -20z m145 3 c0 -3 -11 -14 -25 -25 -18 -14 -25 -29 -26 -56 0 -35 -1 -35 -10 -12 -18 43 15 115 47 103 8 -3 14 -7 14 -10z m-413 -76 c-12 -13 -26 -20 -31 -15 -6 5 -2 14 10 23 30 23 46 17 21 -8z m-44 -54 c-7 -2 -21 -2 -30 0 -10 3 -4 5 12 5 17 0 24 -2 18 -5z"/>
 </g>
<g id="layer103" fill="#535353" stroke="none">
 <path d="M0 2944 l0 -655 30 -26 c17 -13 30 -34 30 -45 0 -11 14 -32 30 -46 17 -15 30 -31 30 -36 0 -5 15 -23 33 -38 l32 -29 -34 18 c-18 10 -40 27 -50 39 -16 21 -57 42 -46 24 3 -6 0 -10 -9 -10 -8 0 -21 18 -29 43 -14 38 -15 -67 -16 -1070 l-1 -1113 1800 0 1800 0 0 1800 0 1800 -66 0 c-55 0 -77 -6 -147 -39 -91 -44 -144 -61 -133 -42 4 6 13 11 20 11 7 0 34 10 62 23 27 13 60 28 74 34 20 10 5 12 -85 12 -89 0 -118 -3 -154 -19 -54 -25 -59 -25 -30 0 24 19 23 19 -343 20 -216 0 -368 -4 -368 -9 0 -5 20 -27 44 -48 24 -22 55 -57 68 -79 28 -49 62 -82 117 -114 24 -14 55 -35 69 -47 23 -19 24 -22 9 -23 -21 0 -147 68 -147 79 0 4 -13 20 -28 37 -16 16 -42 49 -59 74 -17 25 -45 58 -62 74 -17 17 -31 36 -31 43 0 10 -20 13 -76 13 l-77 0 7 -52 6 -53 -21 53 -20 52 -195 0 c-107 0 -194 -3 -194 -7 0 -15 49 -160 66 -199 10 -21 33 -60 51 -85 33 -47 43 -84 21 -77 -13 5 -137 246 -164 321 l-18 47 -112 0 -112 0 75 -137 c87 -158 120 -209 182 -282 25 -29 46 -64 47 -78 4 -32 11 -40 49 -49 25 -5 28 -4 18 7 -22 22 -16 40 11 33 24 -6 44 10 26 21 -17 11 -11 25 10 25 28 0 36 -25 19 -57 -13 -25 -130 -129 -157 -140 -7 -3 -25 6 -40 20 -26 24 -198 127 -213 127 -4 0 -17 25 -29 55 -27 66 -71 107 -160 148 -36 17 -78 41 -93 54 -16 13 -37 23 -48 23 -26 0 -52 14 -84 46 -32 32 -89 114 -106 154 l-14 30 -532 0 -533 0 0 -656z m3100 566 c-8 -5 -33 -9 -55 -9 l-40 2 35 7 c19 4 44 8 55 9 16 0 17 -1 5 -9z m-765 -155 c59 -130 67 -151 62 -172 -6 -25 -86 143 -103 216 -7 31 -15 65 -19 76 -7 25 8 -4 60 -120z m355 45 c14 -11 22 -20 19 -20 -9 0 -69 31 -69 36 0 10 27 2 50 -16z m770 -12 c0 -18 -9 -44 -20 -58 -24 -30 -26 -19 -4 15 10 16 14 34 10 50 -4 14 -2 25 4 25 5 0 10 -15 10 -32z m-941 -82 c12 -32 20 -60 18 -63 -5 -4 -34 64 -48 111 -14 49 7 15 30 -48z m871 44 c0 -14 -27 -25 -112 -44 -95 -22 -122 -17 -42 8 33 10 75 24 94 31 44 16 60 18 60 5z m-1187 -198 c48 -97 87 -182 87 -188 0 -6 13 -28 29 -48 17 -21 39 -56 50 -79 26 -54 110 -154 150 -178 17 -10 31 -15 31 -11 0 4 9 -6 19 -21 19 -30 79 -72 88 -63 7 7 -23 71 -57 121 -15 22 -34 56 -44 75 -9 19 -34 59 -56 88 -37 49 -50 82 -32 82 9 0 79 -92 90 -118 4 -9 19 -35 33 -57 85 -133 164 -302 155 -333 -6 -17 -145 -107 -153 -98 -3 2 7 12 20 21 25 16 87 129 87 157 0 22 -22 38 -50 38 -60 0 -217 125 -257 204 -15 31 -82 123 -115 160 -9 10 -20 32 -24 49 -3 16 -28 73 -54 126 -26 53 -51 107 -55 120 -7 22 -8 22 -17 7 -5 -9 -8 -36 -6 -59 2 -33 -1 -42 -14 -45 -15 -3 -17 7 -13 108 3 61 5 113 5 116 0 24 29 -25 103 -174z m-819 83 c12 -12 50 -44 86 -72 36 -28 74 -61 85 -73 11 -13 56 -47 100 -77 107 -72 140 -97 142 -108 1 -6 5 -19 8 -30 4 -11 -20 7 -52 41 -32 34 -73 68 -90 77 -17 9 -93 68 -169 132 -77 63 -146 114 -154 112 -14 -2 -43 -50 -116 -192 -19 -38 -46 -90 -59 -115 -13 -25 -26 -67 -29 -95 -4 -27 -13 -81 -21 -120 -8 -38 -17 -92 -20 -119 -5 -37 -15 -58 -44 -90 -49 -53 -113 -164 -141 -244 -28 -76 -36 -77 -14 -1 9 30 17 64 17 77 1 12 7 22 14 22 22 0 24 19 7 55 -20 42 -12 59 9 20 l14 -28 16 23 c10 14 14 33 11 47 -5 18 -3 22 10 17 19 -7 61 38 76 81 5 17 14 71 19 120 4 50 14 104 20 120 6 17 16 49 21 71 6 23 21 57 34 77 13 19 27 49 31 66 4 17 23 55 42 84 37 54 67 126 58 136 -3 3 -14 0 -25 -7 -12 -7 -21 -8 -25 -2 -9 15 4 30 25 30 10 0 22 -4 25 -10 9 -15 25 -12 25 5 0 13 3 13 22 3 12 -7 31 -22 42 -33z m666 -57 c0 -10 -6 -18 -14 -18 -19 0 -38 44 -28 63 7 13 42 -24 42 -45z m798 -48 c42 -27 17 -42 -29 -17 -50 26 -79 50 -79 63 0 14 43 -4 108 -46z m230 34 c48 -16 119 -18 174 -5 53 12 38 -3 -17 -19 -28 -8 -63 -10 -93 -6 -26 4 -74 11 -107 15 -64 8 -95 18 -95 31 0 11 87 1 138 -16z m279 -101 c-37 -71 -54 -83 -133 -88 -71 -5 -76 -1 -12 9 27 5 51 22 99 71 34 36 64 63 66 61 3 -2 -7 -26 -20 -53z m-2303 -36 c-60 -67 -91 -114 -99 -152 -6 -28 -6 -29 9 -11 20 24 35 12 18 -15 -9 -14 -10 -25 -2 -39 8 -15 7 -27 -4 -47 l-14 -28 -11 28 c-13 33 -26 34 -47 2 -11 -16 -14 -34 -9 -55 l7 -30 -50 0 c-28 0 -83 11 -124 25 -40 14 -82 25 -93 26 -15 1 -14 3 7 9 24 7 138 -16 167 -35 6 -3 22 -3 36 1 21 5 25 12 25 40 0 34 19 61 56 82 14 8 16 14 8 22 -21 21 5 81 64 153 59 73 95 104 100 87 2 -6 -18 -34 -44 -63z m1632 11 c17 -18 46 -47 65 -64 42 -39 79 -80 79 -88 0 -3 -6 -6 -13 -6 -16 0 -177 163 -177 179 0 19 15 12 46 -21z m-7 -80 c25 -29 66 -71 90 -94 40 -38 42 -41 19 -37 -30 6 -182 158 -173 173 10 16 15 13 64 -42z m-1266 5 c-7 -2 -19 -2 -25 0 -7 3 -2 5 12 5 14 0 19 -2 13 -5z m-46 -9 c-3 -3 -12 -4 -19 -1 -8 3 -5 6 6 6 11 1 17 -2 13 -5z m-52 -15 c-81 -45 -95 -61 -117 -135 -12 -41 -23 -72 -25 -70 -7 7 20 123 33 143 13 21 97 72 119 72 6 0 1 -5 -10 -10z m1809 -44 c-51 -45 -70 -45 -22 0 21 19 43 35 50 35 6 0 -6 -16 -28 -35z m-1241 -29 c3 -8 -1 -16 -8 -18 -27 -6 183 -208 215 -208 31 0 50 -11 50 -29 0 -27 103 -123 124 -115 14 5 16 2 10 -20 -4 -16 -2 -26 5 -26 6 0 11 -11 11 -23 0 -13 7 -38 16 -56 9 -18 14 -34 12 -37 -3 -2 -19 25 -38 60 -42 82 -136 182 -220 236 -88 56 -260 214 -237 218 9 2 17 10 17 18 0 18 36 18 43 0z m411 -46 c7 -14 26 -51 42 -83 15 -32 36 -63 45 -68 19 -10 59 -106 59 -141 0 -17 -2 -18 -15 -8 -8 7 -15 19 -15 26 0 24 -44 104 -55 101 -14 -5 -8 -53 20 -167 20 -81 23 -109 17 -185 -4 -52 -11 -89 -17 -88 -6 2 -13 55 -16 120 -3 65 -13 156 -23 203 -9 47 -21 110 -27 140 -6 30 -20 80 -30 110 -10 30 -19 58 -19 63 0 16 22 2 34 -23z m-625 -5 c-6 -5 -32 -8 -59 -5 -21 1 -18 4 15 14 22 7 42 8 44 3 1 -4 1 -10 0 -12z m-1213 -29 c-6 -23 -3 -25 46 -30 109 -12 110 -14 9 -13 -113 2 -126 -4 -98 -47 9 -13 36 -36 61 -52 25 -16 46 -32 46 -36 0 -17 -102 56 -115 83 -20 38 -19 43 16 84 37 41 43 43 35 11z m2497 -31 c11 -5 17 -3 17 6 0 8 9 4 23 -9 13 -12 29 -22 35 -22 7 0 12 -4 12 -9 0 -15 -26 -31 -61 -37 -19 -4 -47 -13 -63 -21 -18 -10 -32 -11 -38 -5 -11 11 41 32 78 32 27 0 37 12 28 33 -5 15 -55 31 -129 43 -46 8 -57 13 -50 23 5 9 98 -13 148 -34z m-1898 -77 c-4 -18 -11 -51 -14 -73 l-7 -40 -8 48 c-9 51 3 97 25 97 8 0 9 -10 4 -32z m-69 -73 c1 -36 -1 -65 -6 -65 -5 0 -14 25 -21 55 -10 44 -10 57 1 70 19 22 22 14 26 -60z m1597 -242 c-28 -57 -61 -82 -125 -97 -24 -5 -28 -3 -28 14 0 17 5 19 24 14 38 -9 79 22 116 89 41 75 53 58 13 -20z m-105 12 c-6 -14 -13 -23 -15 -21 -5 5 15 46 22 46 3 0 -1 -11 -7 -25z m-651 -123 c7 -4 -54 -8 -135 -8 -107 0 -128 2 -77 6 106 10 199 11 212 2z m-977 -64 c0 -4 7 -8 16 -8 10 0 14 -6 10 -17 -11 -37 -28 -268 -24 -315 3 -27 1 -51 -3 -54 -5 -3 -9 22 -9 56 0 55 -2 61 -25 70 -14 5 -25 12 -25 15 0 3 11 3 25 -1 31 -8 34 17 5 48 -19 21 -19 21 5 44 30 27 33 79 10 144 -8 23 -15 48 -15 54 1 12 30 -23 30 -36z m600 32 c-14 -4 -34 -8 -45 -8 -16 0 -15 2 5 8 14 4 34 8 45 8 16 0 15 -2 -5 -8z m-83 -17 c-4 -3 -10 -3 -14 0 -3 4 0 7 7 7 7 0 10 -3 7 -7z m-1018 -197 l24 -13 -27 -5 c-19 -4 -29 0 -37 13 -12 23 4 25 40 5z m298 -41 c-9 -7 -14 -15 -10 -18 3 -4 -1 -7 -10 -7 -9 0 -17 5 -17 11 0 16 32 39 44 32 5 -4 2 -11 -7 -18z m1063 18 c-14 -3 -31 -9 -37 -15 -7 -6 -21 -7 -30 -3 -15 7 -13 9 12 15 17 4 41 8 55 7 l25 0 -25 -4z m-1115 -23 c-3 -5 -17 -10 -31 -10 -13 0 -24 5 -24 10 0 6 14 10 31 10 17 0 28 -4 24 -10z m118 -27 c-7 -2 -21 -2 -30 0 -10 3 -4 5 12 5 17 0 24 -2 18 -5z m34 -10 c-4 -3 -10 -3 -14 0 -3 4 0 7 7 7 7 0 10 -3 7 -7z m1039 -89 c-4 -13 -11 -24 -17 -24 -6 0 -6 6 1 19 5 11 11 35 11 53 2 32 2 32 6 4 3 -15 2 -39 -1 -52z m664 -81 c0 -13 -3 -13 -15 -3 -8 7 -15 19 -15 27 0 13 3 13 15 3 8 -7 15 -19 15 -27z m-1590 -25 c0 -29 3 -64 5 -78 5 -22 3 -21 -9 5 -17 34 -21 125 -6 125 6 0 10 -24 10 -52z m1357 -20 c29 -17 55 -38 58 -46 3 -7 -16 2 -42 21 -27 19 -61 39 -78 45 -21 7 -24 11 -10 11 10 1 43 -13 72 -31z m-250 16 c-3 -3 -12 -4 -19 -1 -8 3 -5 6 6 6 11 1 17 -2 13 -5z m-60 -11 c-4 -3 -10 -3 -14 0 -3 4 0 7 7 7 7 0 10 -3 7 -7z m-86 -31 c-30 -15 -67 -39 -82 -55 -50 -50 -49 -167 1 -167 12 0 40 -10 62 -21 38 -20 53 -21 177 -16 234 8 333 66 317 183 -6 48 -11 48 54 -6 l25 -21 -25 -17 c-14 -9 -41 -34 -60 -56 -59 -65 -134 -93 -282 -105 -131 -10 -171 -5 -233 27 -82 43 -203 27 -300 -38 -64 -44 -116 -66 -185 -81 -77 -17 -233 -16 -285 1 -45 15 -65 1 -65 -46 0 -19 -4 -34 -10 -34 -5 0 -10 14 -10 32 0 19 -9 42 -22 57 l-23 25 27 -17 c24 -15 30 -15 64 -1 30 13 38 13 45 3 12 -20 133 -27 198 -12 202 44 274 77 287 129 15 58 -38 153 -101 180 -36 16 -18 19 22 3 29 -11 83 -66 83 -85 0 -5 14 -25 32 -43 28 -28 37 -32 67 -27 46 7 66 30 85 97 18 66 35 83 113 115 78 32 91 30 24 -4z m645 2 c-4 -9 -9 -15 -11 -12 -3 3 -3 13 1 22 4 9 9 15 11 12 3 -3 3 -13 -1 -22z m-1233 -41 c-7 -2 -19 -2 -25 0 -7 3 -2 5 12 5 14 0 19 -2 13 -5z m100 0 c-7 -2 -21 -2 -30 0 -10 3 -4 5 12 5 17 0 24 -2 18 -5z m-194 -17 c-8 -6 -99 -35 -99 -30 0 7 64 32 84 33 11 1 17 -1 15 -3z m1401 -15 c0 -11 -4 -23 -10 -26 -6 -4 -10 5 -10 19 0 14 5 26 10 26 6 0 10 -9 10 -19z m-1667 -148 c5 -7 14 -13 21 -13 8 0 17 -16 21 -37 4 -21 12 -44 18 -51 6 -8 -5 -5 -24 6 -52 29 -63 24 -71 -31 -4 -27 -9 -51 -11 -54 -3 -2 -9 22 -15 54 -10 57 -4 95 17 107 7 4 8 28 5 62 -4 36 -2 65 7 87 14 32 14 31 19 -43 3 -41 9 -81 13 -87z m128 95 c-17 -17 -31 -41 -31 -53 0 -17 -7 -21 -37 -23 -33 -2 -35 0 -18 9 11 6 39 31 61 55 23 24 45 44 49 44 4 0 -7 -14 -24 -32z m1439 22 c0 -5 -2 -10 -4 -10 -3 0 -8 5 -11 10 -3 6 -1 10 4 10 6 0 11 -4 11 -10z m110 -40 c0 -5 -4 -10 -10 -10 -5 0 -10 5 -10 10 0 6 5 10 10 10 6 0 10 -4 10 -10z m-504 -35 c28 -30 45 -31 69 -5 21 23 35 26 35 6 0 -14 -32 -30 -82 -42 -22 -5 -27 -2 -30 18 -2 19 -9 23 -41 23 -37 0 -49 9 -24 18 27 12 51 6 73 -18z m426 -6 c25 -34 55 -150 60 -239 5 -71 5 -72 -6 -30 -6 25 -14 50 -19 57 -4 6 -2 13 4 15 21 7 -22 158 -56 197 -16 19 -24 32 -16 30 8 -3 23 -16 33 -30z m-43 -20 c44 -51 26 -50 -24 1 -22 22 -33 40 -25 39 8 0 30 -18 49 -40z m-613 16 c18 -13 18 -14 -4 -8 -12 3 -25 9 -28 14 -8 14 10 11 32 -6z m149 -25 c3 -5 4 -10 1 -10 -3 0 -8 5 -11 10 -3 6 -4 10 -1 10 3 0 8 -4 11 -10z m-976 -70 c1 -22 0 -23 -15 -8 -12 12 -15 24 -9 45 7 26 8 26 15 8 5 -11 9 -31 9 -45z m328 25 l28 -24 -52 -1 c-54 0 -67 12 -41 38 18 18 34 15 65 -13z m-220 -51 c-3 -3 -12 -4 -19 -1 -8 3 -5 6 6 6 11 1 17 -2 13 -5z m53 -4 c0 -5 -9 -10 -20 -10 -11 0 -20 5 -20 10 0 6 9 10 20 10 11 0 20 -4 20 -10z m932 -12 c-16 -16 -142 -24 -142 -9 0 8 20 11 60 9 32 -1 62 1 66 5 4 4 12 7 18 7 6 0 5 -5 -2 -12z m-602 -43 c-14 -8 -29 -14 -35 -14 -5 0 1 6 15 14 14 8 30 14 35 14 6 0 -1 -6 -15 -14z m-150 -55 c-8 -5 -31 -9 -50 -9 l-35 2 35 7 c19 4 42 8 50 9 13 1 13 0 0 -9z m-230 -10 c13 -8 13 -10 -2 -10 -9 0 -20 5 -23 10 -8 13 5 13 25 0z m-225 -50 c8 0 15 -4 15 -10 0 -5 -4 -10 -9 -10 -15 0 -71 50 -71 63 0 7 11 -1 25 -16 14 -15 32 -27 40 -27z m72 -12 c-3 -8 -6 -5 -6 6 -1 11 2 17 5 13 3 -3 4 -12 1 -19z m1608 -136 c-2 -2 -10 11 -19 29 -11 22 -13 36 -6 43 5 5 11 21 11 36 1 14 5 -4 9 -40 4 -36 6 -66 5 -68z m-1595 102 c0 -8 -4 -12 -10 -9 -5 3 -10 10 -10 16 0 5 5 9 10 9 6 0 10 -7 10 -16z m-80 -46 c-1 -41 -3 -49 -11 -36 -9 16 -3 88 7 88 2 0 4 -24 4 -52z m100 -55 c0 -27 -3 -34 -11 -26 -7 7 -9 23 -5 37 9 37 16 32 16 -11z m-93 -25 c-3 -8 -6 -5 -6 6 -1 11 2 17 5 13 3 -3 4 -12 1 -19z m1667 -41 c3 -18 6 -91 7 -163 2 -162 -19 -241 -86 -314 -54 -58 -58 -70 -45 -142 16 -84 6 -82 -15 3 -12 51 -14 74 -6 82 6 6 11 15 11 21 0 6 -4 6 -11 -1 -12 -12 -59 -5 -59 10 0 6 -15 -3 -33 -21 -18 -18 -40 -32 -50 -32 -17 0 -37 28 -37 53 0 22 42 39 70 29 14 -5 56 -7 93 -4 l68 4 25 57 c14 31 32 70 41 88 9 18 13 46 11 64 -3 17 -1 71 3 118 9 94 5 121 -17 121 -17 0 -18 12 -2 28 9 9 7 13 -6 18 -13 5 -14 9 -5 14 20 13 37 0 43 -33z m-1669 -100 c0 -75 3 -90 33 -145 17 -34 32 -73 32 -87 0 -14 13 -39 29 -57 27 -31 30 -32 55 -19 19 11 31 12 48 3 22 -10 22 -11 -6 -11 -22 -1 -26 -4 -18 -14 6 -7 23 -14 37 -15 23 -2 25 1 19 21 -4 12 -19 45 -33 72 -23 43 -31 50 -56 50 -41 1 -41 29 0 33 28 3 33 -2 70 -75 41 -77 70 -106 183 -175 17 -11 32 -27 32 -36 -1 -15 -2 -15 -11 1 -5 9 -16 17 -24 17 -8 0 -31 15 -51 32 -33 29 -44 33 -95 33 -33 0 -63 5 -70 13 -7 6 -26 12 -42 12 -31 0 -91 42 -79 55 4 5 -1 5 -11 2 -10 -4 -16 -3 -12 2 3 5 1 12 -5 16 -5 3 -10 1 -10 -4 0 -6 -16 -11 -35 -11 -40 0 -43 5 -15 28 18 16 18 19 4 57 -23 60 -28 85 -15 85 6 0 11 18 11 42 0 47 21 158 30 158 3 0 5 -37 5 -83z m1605 43 c0 -6 -7 -13 -15 -16 -8 -4 -15 -11 -15 -17 0 -7 4 -7 12 1 12 12 48 17 48 6 0 -3 -13 -19 -30 -36 -16 -16 -30 -36 -30 -44 0 -8 -9 -14 -19 -14 -11 0 -21 -6 -24 -12 -2 -7 -8 -10 -12 -5 -5 4 1 21 13 37 12 16 22 37 22 47 0 22 27 63 41 63 5 0 9 -5 9 -10z m10 -127 c0 -20 -3 -24 -11 -16 -7 7 -9 19 -6 27 10 24 17 19 17 -11z m-1482 -3 c12 -12 22 -28 22 -36 0 -13 -5 -12 -29 5 -16 12 -34 21 -40 21 -15 0 -14 17 2 23 20 9 22 8 45 -13z m1456 -56 c42 -23 53 -44 24 -44 -24 0 -98 42 -98 56 0 21 22 17 74 -12z m-76 -16 c14 -14 -4 -52 -23 -44 -47 18 3 -49 53 -71 37 -15 34 -33 -6 -33 -36 0 -82 46 -82 82 0 28 25 78 39 78 4 0 12 -5 19 -12z m-88 -68 c0 -11 -7 -20 -15 -20 -8 0 -20 -9 -27 -20 -15 -23 -28 -26 -28 -6 0 12 54 66 66 66 2 0 4 -9 4 -20z m176 -1 c11 -9 11 -13 -2 -26 -14 -14 -19 -14 -50 0 -19 9 -34 24 -34 33 0 13 7 16 36 11 20 -3 42 -11 50 -18z m-846 -33 c0 -2 -13 -9 -30 -15 -35 -12 -41 -5 -7 9 25 10 37 12 37 6z m55 -6 c19 -8 19 -9 -2 -9 -12 -1 -25 4 -28 9 -7 12 2 12 30 0z m185 -71 c-12 -22 -50 -23 -57 -2 -4 11 15 20 50 22 15 1 16 -2 7 -20z m-121 -8 c27 -24 21 -37 -19 -43 -22 -3 -31 0 -35 13 -13 39 -128 21 -181 -28 -18 -17 -42 -27 -67 -29 -24 -1 -49 -11 -63 -25 -13 -12 -27 -19 -31 -16 -14 14 39 54 94 71 31 10 74 29 95 43 20 14 43 23 50 20 8 -2 31 -1 53 3 65 12 81 11 104 -9z m631 9 c0 -5 -4 -10 -10 -10 -5 0 -10 5 -10 10 0 6 5 10 10 10 6 0 10 -4 10 -10z m70 1 c0 -13 -27 -21 -45 -15 -25 10 -17 24 15 24 17 0 30 -4 30 -9z m-1471 -40 l24 -18 -36 -7 c-20 -4 -36 -10 -36 -14 3 -21 -4 -27 -31 -27 -42 0 -39 28 4 45 22 8 32 18 29 27 -7 19 18 16 46 -6z m1157 -3 c4 -4 -6 -12 -22 -18 -16 -5 -37 -15 -46 -20 -10 -6 -22 -10 -28 -10 -15 0 -12 38 4 47 18 10 82 10 92 1z m-491 -45 c13 -12 16 -28 12 -59 -2 -24 -2 -45 1 -48 2 -3 19 1 37 9 20 8 50 11 75 8 36 -5 42 -3 47 16 3 11 7 21 9 21 7 0 74 -68 74 -75 0 -10 -36 -5 -47 6 -9 9 -20 6 -45 -9 -26 -15 -48 -19 -101 -18 -58 2 -70 5 -84 26 -14 20 -14 24 -1 34 14 11 16 31 4 62 -11 27 -44 13 -90 -38 l-46 -53 63 -5 62 -5 0 -40 c1 -22 5 -46 9 -54 5 -8 3 -17 -5 -22 -12 -8 -11 -11 4 -20 25 -14 21 -36 -7 -41 -67 -13 -193 44 -183 84 2 7 2 9 -1 5 -2 -4 -9 -4 -15 2 -7 5 -23 11 -37 13 -17 2 -25 9 -25 23 0 11 -7 21 -15 23 -9 1 -27 21 -40 43 -25 39 -30 41 -74 23 -16 -6 -18 -4 -13 10 4 10 7 24 7 32 0 19 29 18 36 -1 4 -8 14 -15 24 -15 10 0 29 -15 41 -32 13 -18 27 -35 31 -36 5 -2 6 -8 2 -13 -8 -14 43 -11 81 5 23 10 35 22 35 35 0 18 29 51 90 100 31 25 63 27 85 4z m271 -9 c21 -14 46 -35 55 -46 11 -14 18 -17 23 -9 10 16 36 14 36 -3 0 -8 -13 -25 -29 -39 l-30 -25 21 -18 c11 -11 23 -18 26 -16 4 2 8 -1 10 -7 2 -6 -4 -14 -13 -17 -37 -14 -94 77 -62 98 16 11 -19 38 -49 38 -12 0 -27 7 -34 15 -11 13 -15 13 -33 0 -12 -8 -34 -15 -50 -15 -15 0 -38 -7 -51 -16 -29 -18 -45 -2 -24 23 15 18 75 46 86 39 4 -2 18 2 32 10 35 19 42 18 86 -12z m273 4 l36 -23 -43 -3 c-43 -3 -80 17 -67 38 10 16 35 12 74 -12z m-1019 -16 c0 -11 -6 -39 -13 -63 -24 -85 5 -112 52 -48 27 37 44 37 70 0 26 -36 26 -35 -5 -56 l-27 -17 6 31 c6 29 5 30 -13 19 -11 -7 -20 -20 -20 -28 0 -23 -19 -47 -27 -35 -5 6 -20 16 -35 22 -22 10 -27 19 -30 55 -4 57 -33 73 -107 57 -59 -12 -115 1 -131 31 -9 17 -7 18 23 9 18 -6 70 -7 120 -3 71 5 90 10 100 25 15 24 37 25 37 1z m939 -18 c25 -32 19 -46 -14 -31 -26 13 -39 33 -29 48 9 15 22 10 43 -17z m261 -9 c13 -35 -3 -71 -42 -91 -17 -9 -38 -23 -46 -30 -7 -8 -23 -14 -35 -14 -11 0 -47 -5 -79 -12 -54 -11 -59 -11 -80 9 -13 12 -27 21 -33 20 -9 -2 -29 72 -21 80 7 7 86 -19 86 -29 0 -4 -3 -7 -7 -7 -5 1 -17 0 -28 -1 -16 -1 -15 -4 10 -15 37 -18 165 -16 165 2 0 7 20 21 45 32 25 11 45 25 45 30 0 15 -5 14 -50 -9 -47 -24 -122 -27 -140 -5 -16 20 6 29 54 22 24 -3 50 3 83 18 61 30 62 30 73 0z m-780 -19 c0 -25 -26 -43 -33 -23 -5 15 10 47 23 47 6 0 10 -11 10 -24z m-190 -32 c0 -8 -5 -12 -10 -9 -6 4 -8 11 -5 16 9 14 15 11 15 -7z m556 -84 c24 -37 81 -77 92 -65 3 2 -3 7 -12 11 -22 8 -10 24 18 24 24 0 66 -33 66 -53 0 -8 -19 -12 -55 -13 -30 0 -55 4 -55 9 0 6 -23 7 -55 3 -65 -7 -128 -43 -149 -84 -13 -24 -19 -28 -50 -24 -30 4 -33 6 -21 18 17 17 42 18 48 2 4 -8 6 -7 6 4 1 9 -4 18 -10 20 -20 7 19 37 64 49 l42 12 -34 10 c-24 8 -38 7 -52 -1 -20 -13 -81 -16 -92 -5 -10 9 73 82 100 89 12 3 24 12 27 20 4 9 21 14 51 14 41 0 47 -3 71 -40z m-232 2 c9 -15 -11 -33 -40 -35 -23 -2 -30 2 -32 21 -3 19 1 22 32 22 19 0 37 -4 40 -8z m626 -21 c0 -12 -9 -20 -25 -23 -33 -7 -39 1 -18 24 21 23 43 23 43 -1z m-1030 -16 c-14 -15 -33 -24 -49 -24 -24 2 -24 2 -3 6 12 2 22 10 22 18 0 14 15 23 39 24 10 1 7 -7 -9 -24z m908 -48 c-14 -12 -30 -38 -34 -57 -4 -20 -9 -29 -12 -20 -3 8 -9 18 -15 21 -5 4 -7 22 -3 43 9 45 52 74 76 50 13 -13 12 -17 -12 -37z m-575 -64 c-13 -2 -33 -2 -45 0 -13 2 -3 4 22 4 25 0 35 -2 23 -4z m44 -10 c-4 -3 -10 -3 -14 0 -3 4 0 7 7 7 7 0 10 -3 7 -7z"/>
 <path d="M2694 2435 c-17 -26 -14 -42 5 -30 6 3 15 15 21 25 16 30 -7 34 -26 5z"/>
 <path d="M1530 1466 c0 -9 5 -16 10 -16 6 0 10 4 10 9 0 6 -4 13 -10 16 -5 3 -10 -1 -10 -9z"/>
 <path d="M863 1413 c4 -3 10 -3 14 0 3 4 0 7 -7 7 -7 0 -10 -3 -7 -7z"/>
 <path d="M2263 473 c4 -3 10 -3 14 0 3 4 0 7 -7 7 -7 0 -10 -3 -7 -7z"/>
 <path d="M870 722 c0 -12 51 -84 57 -79 7 8 -36 87 -47 87 -6 0 -10 -3 -10 -8z"/>
 <path d="M1466 287 c-16 -12 -16 -13 6 -13 13 0 29 6 36 13 11 11 10 13 -5 13 -11 0 -27 -6 -37 -13z"/>
 <path d="M1564 292 c9 -15 48 -23 43 -9 -2 7 -14 14 -26 15 -13 2 -21 -1 -17 -6z"/>
 <path d="M1854 277 c-3 -10 -12 -17 -19 -17 -8 0 -16 -3 -19 -8 -2 -4 13 -6 34 -4 21 2 41 -1 44 -7 4 -6 16 -11 26 -11 17 0 18 3 8 25 -9 20 -14 23 -26 13 -11 -10 -17 -9 -28 6 -12 17 -14 17 -20 3z"/>
 <path d="M1110 3595 c0 -3 9 -22 19 -43 31 -60 101 -133 149 -153 24 -11 57 -28 73 -39 15 -11 59 -36 98 -55 76 -38 141 -89 141 -111 0 -23 33 -84 46 -84 6 0 17 -7 24 -15 7 -8 17 -15 23 -15 7 0 -3 13 -21 29 -17 17 -32 35 -32 40 0 25 38 7 96 -46 80 -74 118 -103 137 -103 23 0 32 21 16 34 -8 6 -20 23 -26 39 -7 15 -33 55 -58 90 -58 78 -135 194 -135 202 0 3 -11 22 -24 43 -14 20 -42 71 -64 112 l-40 75 -211 3 c-116 1 -211 0 -211 -3z"/>
 </g>
<g id="layer104" fill="#707070" stroke="none">
 <path d="M0 2952 l0 -648 29 -28 c16 -16 32 -40 36 -55 6 -26 13 -34 96 -119 l42 -44 -44 23 c-24 12 -50 30 -57 40 -7 11 -25 19 -41 19 -21 0 -31 8 -44 33 -15 30 -16 -48 -16 -1070 l-1 -1103 1800 0 1800 0 0 1800 0 1800 -72 0 c-47 0 -77 -5 -87 -14 -19 -17 -157 -76 -177 -76 -33 0 -8 17 74 50 l87 35 -98 3 c-81 2 -105 -1 -144 -18 -58 -26 -71 -25 -47 1 l19 21 -85 -6 c-95 -7 -81 -7 -350 -1 -147 3 -189 1 -172 -7 30 -15 28 -24 -5 -23 -38 0 -42 -32 -8 -65 14 -14 33 -33 43 -42 9 -10 22 -18 30 -18 27 0 134 -61 129 -74 -7 -18 115 -72 214 -95 89 -21 99 -27 115 -74 14 -43 63 -55 158 -38 38 6 71 9 74 6 12 -11 -59 -29 -118 -29 -107 1 -235 9 -240 15 -3 4 -15 9 -26 13 -26 8 -41 -19 -23 -41 14 -16 -6 -63 -27 -63 -13 0 -34 -50 -34 -81 0 -11 5 -19 11 -19 17 0 1 -71 -22 -96 -19 -21 -19 -21 5 -47 13 -14 43 -31 66 -37 22 -6 48 -14 56 -17 9 -3 14 1 14 13 1 16 4 15 23 -7 12 -15 33 -32 46 -39 31 -16 20 -25 -65 -55 -80 -28 -94 -30 -94 -11 0 8 22 18 60 27 33 7 60 16 60 19 0 14 -103 53 -165 62 -11 2 -20 11 -20 21 0 26 -31 40 -76 34 -22 -3 -39 -2 -39 2 0 9 -60 31 -83 31 -38 0 -7 -75 52 -126 19 -16 24 -31 26 -80 1 -41 12 -82 34 -134 17 -41 31 -83 29 -94 -2 -12 -30 -36 -73 -62 -76 -47 -104 -56 -65 -21 26 24 67 94 80 138 9 29 -3 49 -30 49 -9 0 -39 12 -68 26 -71 35 -96 30 -100 -20 -2 -21 1 -43 7 -49 18 -18 13 -27 -14 -27 -41 0 -75 -63 -88 -166 -16 -118 -37 -126 -37 -13 0 87 -42 352 -65 406 -7 17 -31 51 -52 75 -22 24 -47 55 -56 71 -20 31 -52 36 -65 10 -5 -10 -6 -46 -2 -83 10 -74 3 -88 -40 -82 -16 2 -30 0 -30 -6 0 -18 29 -34 51 -29 32 8 51 -2 43 -25 -8 -28 99 -136 120 -119 11 9 15 2 20 -40 4 -29 14 -65 22 -80 7 -15 14 -36 14 -46 0 -10 -18 16 -40 57 -47 87 -129 175 -221 236 -63 41 -199 160 -244 213 -68 81 -115 127 -150 149 -42 26 -158 119 -258 205 -65 56 -83 56 -100 1 -6 -16 -18 -40 -27 -54 -10 -14 -43 -74 -74 -133 -57 -109 -69 -155 -112 -425 -3 -18 -20 -50 -37 -70 -71 -82 -114 -160 -158 -289 -36 -102 -51 -288 -39 -467 4 -65 5 -138 2 -162 -7 -68 6 -135 29 -141 12 -3 23 -20 29 -44 15 -53 70 -92 70 -49 0 11 -5 20 -10 20 -18 0 -35 49 -22 62 23 23 13 38 -24 38 l-37 0 29 22 c16 13 39 35 52 50 26 31 120 78 154 78 13 -1 -4 -10 -37 -21 -58 -20 -98 -47 -115 -80 -11 -19 21 -181 40 -204 9 -11 32 -15 89 -15 136 0 354 70 383 123 26 49 -28 157 -95 188 -35 15 -38 19 -17 19 36 0 88 -35 108 -72 9 -17 31 -48 49 -67 l31 -36 44 15 c40 14 44 19 63 77 25 77 52 106 123 132 78 28 132 38 72 13 -52 -21 -120 -63 -137 -84 -7 -7 -17 -35 -24 -60 -11 -40 -10 -49 4 -72 10 -14 24 -26 31 -26 7 0 35 -10 62 -21 44 -20 60 -21 174 -16 131 6 203 23 255 59 39 26 65 70 65 110 0 37 -50 86 -124 123 -41 21 -45 25 -24 25 15 0 51 -19 88 -47 34 -27 77 -59 96 -73 37 -28 44 -56 15 -65 -11 -3 -35 -24 -55 -45 -68 -76 -184 -116 -317 -111 -19 1 -46 -2 -60 -7 -28 -11 -72 0 -148 35 -47 22 -63 25 -122 20 -74 -6 -119 -24 -217 -86 -83 -52 -167 -71 -303 -67 -58 2 -115 8 -126 15 -49 26 -69 -10 -54 -96 13 -70 14 -76 1 -68 -5 3 -10 21 -10 40 0 19 -4 37 -10 40 -5 3 -10 19 -10 34 0 16 -9 40 -21 55 -23 30 -19 33 15 10 19 -11 26 -12 32 -3 9 16 -43 59 -72 59 -26 0 -30 -9 -39 -84 -6 -47 -4 -60 10 -76 10 -11 23 -20 29 -20 8 0 12 -63 14 -198 3 -171 6 -202 23 -238 11 -23 28 -49 39 -59 14 -13 17 -25 13 -46 -7 -35 22 -76 42 -59 7 6 23 6 46 0 18 -6 37 -10 40 -10 3 0 -5 22 -18 50 -23 48 -44 62 -58 39 -5 -6 -12 -4 -21 8 -20 27 -17 33 16 33 19 0 30 5 30 14 0 16 -42 46 -65 46 -17 0 -21 25 -5 35 28 17 52 -11 103 -118 54 -113 75 -139 163 -197 21 -14 53 -40 71 -59 l34 -34 30 31 c17 17 54 38 82 47 29 10 68 27 88 40 26 17 57 25 119 30 80 6 84 5 110 -20 28 -27 64 -26 53 2 -9 22 16 33 72 31 28 0 39 -3 25 -5 -14 -3 -29 -9 -34 -14 -6 -5 33 -9 100 -9 92 0 118 4 169 25 33 13 67 34 75 46 27 38 84 88 90 79 7 -11 70 74 70 93 0 7 7 22 15 33 8 10 19 36 25 57 12 42 45 81 61 72 5 -4 7 -11 4 -16 -4 -5 4 -13 16 -17 15 -6 18 -11 11 -16 -12 -7 -10 -24 5 -83 6 -22 9 -12 13 42 6 76 -2 105 -27 105 -13 0 -14 3 -5 12 7 7 12 16 12 20 0 12 -35 9 -48 -4 -8 -8 -12 -8 -12 -1 0 17 26 34 57 37 24 3 28 8 26 31 -1 15 -10 36 -19 46 -9 11 -12 19 -7 19 6 0 13 7 17 15 7 18 -13 125 -27 143 -6 8 -6 17 2 25 8 10 7 27 -3 63 -8 27 -17 61 -20 76 -4 15 -20 43 -37 63 -30 34 -29 46 2 22 63 -49 97 -238 108 -602 7 -215 7 -222 -17 -295 -17 -54 -35 -86 -62 -115 -51 -52 -61 -81 -49 -135 15 -65 6 -96 -10 -37 -17 59 -37 76 -28 23 5 -29 2 -41 -14 -57 -14 -14 -19 -28 -15 -44 6 -24 -12 -35 -65 -35 -31 0 -74 -43 -90 -89 l-12 -34 -31 37 -31 36 -104 5 c-93 5 -108 3 -149 -17 -29 -15 -50 -34 -60 -56 -15 -30 -19 -32 -51 -26 -20 4 -44 13 -53 21 -9 9 -48 19 -85 23 -91 10 -109 19 -172 79 -61 58 -103 67 -137 30 -44 -49 -184 8 -184 75 0 58 -38 83 -99 65 -50 -15 -107 -4 -137 26 -24 24 -33 75 -14 75 17 0 50 39 50 60 0 32 -36 60 -76 60 -20 0 -34 3 -32 8 2 4 10 20 18 35 12 25 12 32 -5 64 -25 45 -23 94 4 168 22 58 23 73 21 242 0 58 -3 65 -31 85 -24 18 -29 28 -25 48 3 14 0 53 -5 86 -9 51 -8 67 5 92 9 17 16 55 16 85 0 30 6 69 14 88 9 22 11 42 5 63 -5 17 -9 74 -9 128 0 113 -4 128 -36 128 -35 0 -29 18 7 22 l31 3 -21 27 c-26 32 -26 44 -2 51 31 8 37 85 12 152 -22 57 -13 73 15 30 9 -14 19 -23 22 -20 9 9 43 138 43 163 -1 13 5 22 14 22 19 0 19 18 0 64 -9 22 -11 36 -5 36 6 0 15 -11 20 -25 5 -14 14 -25 20 -25 13 0 24 45 17 70 -6 22 3 26 19 10 8 -8 19 0 38 25 34 45 45 79 47 158 0 34 9 87 19 117 10 30 23 74 29 97 6 23 22 55 35 70 12 15 26 44 30 63 3 19 24 62 46 95 34 53 62 125 48 125 -14 0 -75 -37 -90 -54 -10 -12 -33 -51 -52 -88 -19 -37 -37 -64 -42 -60 -4 4 -5 2 -1 -3 3 -6 -3 -38 -15 -70 -14 -42 -21 -94 -24 -175 -5 -158 -18 -245 -35 -235 -5 4 -17 -3 -27 -15 l-17 -22 -20 22 c-11 12 -27 45 -36 74 l-16 51 -57 2 c-32 1 -85 11 -119 22 -61 20 -175 38 -272 43 -41 2 -50 -1 -53 -16 -5 -21 30 -60 78 -87 22 -13 54 -50 85 -97 58 -89 59 -92 48 -92 -4 0 -28 30 -53 66 -47 69 -96 118 -127 128 -21 7 -53 55 -53 81 0 21 51 85 68 85 8 0 10 -8 6 -25 -6 -24 -4 -25 37 -25 24 -1 64 -5 88 -9 52 -10 71 -5 71 18 0 9 14 25 31 35 30 18 31 18 68 -8 20 -14 44 -26 52 -26 17 0 96 100 115 147 8 19 56 78 107 132 101 107 105 111 161 194 37 55 38 60 28 95 -6 21 -24 51 -39 67 -33 35 -83 101 -83 110 0 3 -12 23 -26 45 l-27 40 -523 0 -524 0 0 -648z m3109 557 c-19 -12 -106 -12 -93 0 9 10 83 19 98 12 4 -2 2 -7 -5 -12z m353 -136 c-13 -44 -37 -81 -47 -72 -3 4 4 23 16 43 11 20 18 43 15 52 -8 22 3 39 17 25 7 -7 7 -22 -1 -48z m-79 -34 c-14 -14 -52 -27 -113 -40 -51 -11 -95 -17 -98 -15 -8 8 72 43 123 54 28 6 61 15 75 20 34 13 38 6 13 -19z m-35 -292 c-42 -74 -60 -81 -193 -77 l-70 2 80 12 c80 11 81 12 145 74 35 35 66 59 68 54 1 -5 -12 -34 -30 -65z m-1898 -77 c11 -7 6 -10 -21 -10 -57 0 -132 -27 -173 -62 -30 -26 -44 -51 -67 -118 -16 -47 -26 -71 -23 -55 3 17 10 55 15 85 11 72 51 108 157 143 87 30 91 30 112 17z m1719 -44 c-22 -21 -102 -76 -105 -73 -9 8 71 77 89 77 11 0 18 -2 16 -4z m-1499 -100 c0 -20 -29 -27 -65 -17 -28 9 -29 9 -5 10 14 1 32 6 40 11 21 14 30 12 30 -4z m938 -413 c-13 -46 -52 -109 -76 -122 -22 -12 -105 -41 -108 -38 -1 1 0 14 3 29 4 23 8 25 23 16 30 -19 78 18 118 90 38 69 56 81 40 25z m-1923 -48 c15 -31 32 -58 36 -61 5 -3 9 -10 9 -16 0 -19 -29 13 -60 67 -32 56 -35 65 -22 65 5 0 21 -25 37 -55z m1798 9 c-10 -19 -19 -30 -21 -24 -5 14 18 60 30 60 4 0 0 -16 -9 -36z m-648 -123 c3 -6 -33 -10 -94 -9 -54 0 -104 -2 -109 -6 -6 -4 -30 -3 -54 1 -42 8 -41 8 32 14 129 9 219 9 225 0z m-338 -18 c-4 -3 -10 -3 -14 0 -3 4 0 7 7 7 7 0 10 -3 7 -7z m-43 -13 c-12 -5 -43 -11 -70 -14 l-49 -6 45 14 c25 8 56 14 70 14 24 1 24 0 4 -8z m-147 -27 c-4 -3 -10 -3 -14 0 -3 4 0 7 7 7 7 0 10 -3 7 -7z m-66 -22 c-8 -5 -20 -7 -28 -4 -21 8 -15 13 15 13 20 0 23 -3 13 -9z m-913 -148 c44 -21 47 -30 15 -38 -22 -5 -31 -2 -42 14 -7 12 -19 21 -25 21 -7 0 -21 7 -32 15 -18 15 -17 16 16 9 19 -3 50 -13 68 -21z m1356 -37 c41 5 55 3 65 -10 15 -18 1 -22 -17 -4 -9 9 -20 9 -47 -1 -37 -13 -66 -3 -64 23 0 7 2 6 6 -1 3 -9 20 -11 57 -7z m-1216 -10 c29 -10 51 -12 72 -6 17 5 38 6 46 3 9 -3 26 0 40 7 13 8 26 11 29 8 9 -9 -6 -58 -16 -52 -5 3 -44 7 -87 10 -77 5 -142 21 -142 36 0 11 12 10 58 -6z m1310 -51 c-3 -3 -9 2 -12 12 -6 14 -5 15 5 6 7 -7 10 -15 7 -18z m-1023 4 c5 -7 -8 -9 -40 -5 -63 7 -70 16 -12 16 25 0 49 -5 52 -11z m1031 -95 c-4 -13 -11 -24 -17 -24 -7 0 -8 7 -4 18 5 9 11 33 14 52 5 34 5 34 9 6 2 -15 1 -39 -2 -52z m674 -97 c0 -5 -9 -2 -20 8 -11 10 -20 25 -20 34 1 12 5 10 20 -8 11 -13 20 -28 20 -34z m-410 3 c0 -5 -4 -10 -9 -10 -6 0 -13 5 -16 10 -3 6 1 10 9 10 9 0 16 -4 16 -10z m-65 -10 c-11 -5 -27 -9 -35 -9 -9 0 -8 4 5 9 11 5 27 9 35 9 9 0 8 -4 -5 -9z m481 -57 c-10 -26 -18 -8 -9 23 5 21 8 24 11 11 2 -10 1 -25 -2 -34z m-1223 -30 c-7 -2 -21 -2 -30 0 -10 3 -4 5 12 5 17 0 24 -2 18 -5z m95 0 c-10 -2 -28 -2 -40 0 -13 2 -5 4 17 4 22 1 32 -1 23 -4z m-151 -9 c-3 -3 -12 -4 -19 -1 -8 3 -5 6 6 6 11 1 17 -2 13 -5z m1357 -30 c4 -15 2 -24 -9 -28 -12 -4 -15 2 -15 31 0 38 12 36 24 -3z m-99 -25 c11 -17 -1 -21 -15 -4 -8 9 -8 15 -2 15 6 0 14 -5 17 -11z m106 -42 c-1 -12 -15 -9 -19 4 -3 6 1 10 8 8 6 -3 11 -8 11 -12z m-511 -22 c26 -28 61 -32 80 -10 7 8 19 15 27 15 26 0 -5 -38 -39 -48 -54 -17 -146 -23 -153 -11 -12 18 5 60 28 69 31 13 31 13 57 -15z m390 -35 c23 -27 37 -50 32 -50 -11 0 -92 81 -92 92 0 19 21 4 60 -42z m-616 24 c17 -6 22 -24 8 -24 -5 0 -17 7 -28 15 -19 15 -8 20 20 9z m-487 -79 l28 -24 -52 -1 c-29 0 -56 0 -60 -1 -15 -1 -13 19 2 35 23 23 49 20 82 -9z m-177 -57 c0 -6 -14 -8 -37 -3 -55 10 -60 21 -8 17 25 -2 45 -9 45 -14z m940 -7 c0 -13 -38 -21 -109 -21 -84 0 -69 18 19 23 36 2 71 4 78 5 6 1 12 -2 12 -7z m-585 -31 c-8 -13 -76 -42 -83 -36 -4 5 65 43 81 45 5 1 5 -4 2 -9z m-115 -35 c0 -16 -70 -45 -105 -44 l-40 1 50 12 c28 7 59 17 70 24 23 13 25 14 25 7z m-290 -45 c13 -9 13 -10 0 -10 -8 0 -22 5 -30 10 -13 9 -13 10 0 10 8 0 22 -5 30 -10z m-121 -179 c6 -37 5 -51 -3 -48 -6 2 -11 27 -12 56 -1 63 4 60 15 -8z m737 -453 c5 -8 -5 -9 -36 -5 -23 3 -54 1 -68 -4 -28 -11 -44 -3 -22 11 21 14 117 12 126 -2z"/>
 <path d="M1973 1503 c-7 -2 -13 -11 -13 -19 0 -10 12 -14 40 -14 28 0 40 4 40 14 0 21 -37 32 -67 19z"/>
 <path d="M1171 3583 c28 -37 71 -71 123 -98 52 -27 56 -28 74 -12 18 16 20 16 45 -9 15 -15 27 -30 27 -33 0 -8 50 -30 79 -36 12 -2 33 -13 48 -24 14 -12 34 -21 43 -21 37 0 30 33 -25 133 -30 55 -55 104 -55 109 0 4 -84 8 -186 8 -176 0 -186 -1 -173 -17z"/>
 <path d="M1598 3583 c6 -10 23 -47 40 -83 17 -36 42 -82 56 -103 14 -21 26 -41 26 -45 0 -9 63 -52 77 -52 7 0 18 -6 25 -12 24 -23 75 -48 97 -48 38 0 36 9 -82 252 l-52 108 -98 0 c-90 0 -97 -1 -89 -17z"/>
 <path d="M1850 3596 c0 -3 11 -46 24 -96 35 -130 86 -209 138 -217 12 -2 27 -8 33 -13 16 -13 43 9 47 39 6 44 29 35 96 -37 70 -73 97 -92 131 -92 31 0 33 31 6 98 -14 34 -25 70 -25 79 0 10 -16 69 -36 131 l-36 112 -189 0 c-104 0 -189 -2 -189 -4z"/>
 <path d="M2266 3582 c-9 -27 34 -150 99 -284 58 -122 97 -168 171 -203 43 -20 58 -12 50 30 -5 27 -3 33 14 38 11 3 23 -1 28 -7 10 -18 112 -67 123 -60 13 8 7 36 -13 57 -9 10 -19 33 -22 51 -4 21 -24 49 -56 80 -27 26 -78 81 -112 123 -35 41 -82 98 -105 126 -24 28 -43 54 -43 59 0 4 -29 8 -64 8 -54 0 -66 -3 -70 -18z m257 -275 c15 -40 21 -67 14 -64 -12 4 -65 130 -66 157 -1 25 24 -20 52 -93z"/>
 <path d="M1254 3345 c-13 -33 32 -57 66 -35 12 7 12 12 -4 29 -22 25 -54 27 -62 6z"/>
 <path d="M1330 3297 c0 -14 13 -26 95 -91 28 -22 75 -63 105 -92 30 -29 94 -77 143 -108 48 -31 87 -61 87 -67 0 -5 5 -7 11 -4 7 5 5 13 -5 24 -9 10 -16 22 -16 27 0 14 -45 46 -108 78 -44 23 -56 35 -76 79 -30 67 -66 103 -141 138 -65 32 -95 36 -95 16z"/>
 <path d="M1296 3265 c4 -8 10 -15 15 -15 5 0 9 7 9 15 0 8 -7 15 -15 15 -9 0 -12 -6 -9 -15z"/>
 <path d="M2743 3244 c-13 -35 69 -84 102 -60 13 10 12 15 -7 43 -18 25 -30 33 -56 33 -20 0 -35 -6 -39 -16z"/>
 <path d="M1979 3042 c-36 -35 -59 -67 -57 -77 1 -9 19 -24 38 -34 19 -9 59 -30 88 -45 61 -31 82 -24 82 25 0 29 -19 53 -56 75 -15 9 -19 21 -17 57 1 26 -3 50 -8 53 -6 3 -37 -21 -70 -54z"/>
 <path d="M2455 3049 c-12 -18 3 -54 38 -87 29 -28 35 -31 51 -19 28 20 13 61 -31 92 -42 28 -49 30 -58 14z"/>
 <path d="M1816 2877 c3 -10 9 -15 12 -12 3 3 0 11 -7 18 -10 9 -11 8 -5 -6z"/>
 <path d="M907 2773 c-4 -3 -7 -16 -7 -29 0 -17 4 -21 19 -17 21 5 35 29 25 44 -6 11 -28 12 -37 2z"/>
 <path d="M2692 2430 c-10 -17 -10 -20 3 -20 8 0 15 2 15 4 0 2 3 11 6 20 9 23 -9 20 -24 -4z"/>
 <path d="M2520 680 c0 -19 3 -21 12 -12 9 9 9 15 0 24 -9 9 -12 7 -12 -12z"/>
 <path d="M1085 550 c28 -12 37 -12 30 0 -3 6 -16 10 -28 9 -21 0 -21 -1 -2 -9z"/>
 <path d="M1015 526 c-14 -10 -15 -15 -5 -21 9 -5 2 -12 -21 -22 -29 -12 -31 -15 -17 -29 8 -8 40 -18 70 -21 51 -5 56 -4 76 22 l21 27 43 -20 c138 -63 157 -60 56 9 -57 38 -68 43 -117 41 -36 -1 -60 3 -71 13 -14 13 -19 13 -35 1z"/>
 <path d="M1625 520 c-3 -5 1 -10 9 -10 9 0 16 5 16 10 0 6 -4 10 -9 10 -6 0 -13 -4 -16 -10z"/>
 <path d="M1170 348 c0 -16 6 -25 15 -25 10 0 15 8 13 20 -4 30 -28 34 -28 5z"/>
 </g>
<g id="layer105" fill="#919191" stroke="none">
 <path d="M0 2954 l0 -645 29 -25 c16 -13 32 -36 36 -51 6 -27 48 -81 107 -140 18 -18 29 -33 25 -33 -17 0 -95 51 -101 66 -4 12 -14 14 -31 10 -21 -5 -28 -1 -45 26 l-20 33 0 -1097 0 -1098 1800 0 1800 0 0 1800 0 1800 -65 0 c-43 0 -74 -5 -90 -16 -44 -29 -177 -82 -191 -77 -17 6 -18 23 -1 23 6 1 48 17 92 36 l80 34 -105 -3 c-83 -2 -115 -7 -150 -24 -46 -22 -68 -14 -34 12 17 13 11 14 -51 14 -46 0 -77 -5 -89 -14 -25 -19 -54 -19 -99 0 -27 11 -75 15 -189 14 -84 0 -147 -3 -140 -6 22 -9 13 -33 -12 -33 -14 0 -28 -5 -32 -11 -12 -19 78 -98 149 -131 37 -17 73 -40 78 -51 16 -28 128 -76 206 -87 73 -10 100 -29 117 -82 9 -25 18 -34 46 -40 52 -11 178 11 201 35 10 12 19 16 19 11 0 -19 -44 -51 -92 -67 -39 -13 -60 -14 -120 -5 -40 5 -100 8 -132 5 -43 -4 -63 -2 -73 9 -8 8 -19 11 -25 7 -7 -4 -3 -13 10 -24 l22 -17 -40 -39 c-44 -44 -59 -85 -40 -108 15 -18 -1 -85 -24 -105 -12 -9 -12 -17 -4 -35 13 -29 131 -71 136 -48 5 19 11 17 40 -15 15 -16 34 -31 42 -35 24 -9 -23 -44 -70 -52 -22 -4 -42 -11 -46 -16 -7 -12 -51 -12 -59 1 -7 11 32 29 83 37 18 3 31 11 29 17 -5 15 -85 45 -123 45 -34 1 -54 17 -54 42 0 21 -41 32 -74 19 -21 -7 -33 -5 -59 10 -35 22 -67 26 -67 10 0 -20 28 -65 59 -94 29 -27 31 -35 31 -96 0 -38 6 -74 13 -85 20 -30 47 -108 47 -135 0 -21 -14 -33 -80 -72 -44 -26 -82 -43 -85 -38 -3 5 6 17 20 26 27 17 85 123 85 154 0 12 -18 24 -62 39 -126 44 -142 38 -120 -46 8 -27 9 -50 3 -61 -5 -9 -17 -36 -26 -59 -10 -24 -22 -43 -28 -43 -13 0 1 49 24 81 23 33 24 39 1 39 -32 0 -74 -87 -83 -170 -4 -41 -8 -76 -8 -77 -1 -2 -8 -3 -16 -3 -18 0 -29 58 -21 116 4 30 -4 93 -24 194 -33 169 -27 154 -90 235 -26 33 -52 70 -59 83 -6 12 -21 22 -33 22 -20 0 -21 -4 -16 -85 3 -47 2 -88 -3 -91 -16 -9 -10 -24 10 -24 14 0 17 -6 13 -26 -7 -37 80 -126 115 -118 22 6 23 4 17 -20 -4 -16 -2 -26 5 -26 6 0 11 -13 11 -29 0 -16 7 -45 15 -64 31 -74 13 -69 -29 7 -58 104 -129 183 -218 242 -105 70 -195 150 -288 257 -45 51 -95 102 -113 112 -30 17 -89 62 -147 112 -131 112 -174 141 -192 132 -10 -5 -18 -17 -18 -27 0 -9 -21 -51 -45 -92 -25 -41 -45 -78 -45 -83 0 -5 -16 -34 -35 -65 -26 -44 -38 -79 -50 -152 -8 -52 -20 -117 -25 -145 -5 -27 -12 -67 -15 -87 -4 -24 -19 -51 -43 -76 -80 -84 -161 -263 -183 -402 -7 -46 -9 -170 -6 -347 4 -273 8 -298 40 -298 6 0 15 -18 19 -40 11 -54 68 -102 68 -57 0 9 -9 23 -20 30 -21 13 -27 56 -10 67 18 11 0 25 -25 19 -39 -10 -50 6 -18 26 15 9 46 35 68 57 59 59 135 84 265 89 l105 3 -110 -13 c-121 -15 -182 -33 -232 -72 -39 -30 -41 -54 -17 -163 20 -90 29 -96 145 -88 132 8 266 50 324 100 33 29 36 35 30 68 -11 60 -46 111 -95 137 l-45 24 39 -5 c46 -7 68 -25 112 -95 44 -67 69 -80 118 -57 29 14 38 25 46 59 20 79 37 104 88 130 54 27 177 61 262 72 84 10 52 -7 -40 -22 -183 -29 -298 -122 -271 -221 14 -51 152 -88 291 -78 157 12 234 41 276 105 38 58 29 95 -37 144 -28 21 -67 44 -87 51 l-37 14 31 0 c33 1 81 -27 150 -88 23 -20 53 -44 65 -53 l24 -18 -24 -17 c-12 -10 -44 -39 -70 -64 -70 -70 -123 -90 -281 -105 l-135 -12 -88 35 c-79 32 -94 35 -148 29 -71 -8 -92 -17 -189 -78 -124 -77 -280 -98 -457 -62 -43 9 -54 -13 -42 -91 5 -33 14 -73 19 -90 18 -60 21 -105 6 -105 -18 0 -28 28 -18 47 10 17 4 61 -9 69 -5 3 -9 22 -9 44 0 23 -5 40 -14 43 -9 4 -12 15 -8 32 3 19 -3 34 -23 56 -34 34 -28 48 10 23 18 -11 29 -14 36 -7 7 7 -1 17 -24 32 -19 11 -39 21 -45 21 -19 0 -32 -36 -34 -97 -3 -57 -2 -58 29 -73 26 -12 31 -19 25 -35 -9 -28 -3 -332 9 -376 5 -20 18 -48 29 -62 17 -21 25 -24 52 -18 18 4 36 7 40 7 34 -5 -9 41 -54 57 -10 4 -18 11 -18 16 0 14 45 25 60 16 7 -4 35 -58 64 -119 54 -115 66 -129 166 -196 29 -19 63 -46 76 -59 l24 -24 28 26 c15 15 55 36 87 47 33 11 73 30 89 42 20 14 47 22 80 23 28 1 61 5 74 9 17 6 34 1 62 -19 38 -27 64 -27 54 -1 -6 16 32 29 89 31 25 1 37 -3 37 -12 0 -10 20 -13 82 -12 106 2 175 30 238 99 25 26 54 50 65 52 19 3 35 31 119 208 6 14 21 29 32 34 11 5 25 20 31 32 9 21 8 24 -7 24 -10 0 -25 -10 -33 -22 -13 -19 -16 -20 -16 -6 -1 20 45 58 70 58 28 0 30 13 8 49 -16 26 -17 36 -8 47 14 17 5 120 -12 141 -6 7 -8 24 -5 38 10 41 -12 112 -38 119 -12 3 -42 28 -65 56 -33 40 -38 50 -24 50 10 0 36 -23 58 -50 29 -36 41 -46 43 -34 2 9 -13 34 -34 55 -33 34 -35 39 -18 39 49 0 100 -117 109 -245 1 -27 8 -84 14 -125 6 -41 13 -165 14 -275 3 -185 2 -205 -19 -268 -12 -37 -35 -84 -51 -103 -15 -20 -37 -46 -47 -60 -18 -21 -19 -31 -10 -94 10 -70 8 -80 -13 -59 -22 22 -52 0 -55 -39 -3 -35 -5 -37 -44 -42 -57 -8 -101 -43 -114 -91 l-11 -39 -37 39 c-36 37 -38 38 -130 44 -72 5 -101 3 -132 -9 -42 -17 -90 -65 -90 -90 0 -16 -16 -19 -25 -4 -3 5 -15 10 -26 10 -11 0 -31 7 -44 16 -14 9 -57 20 -95 24 -76 8 -126 34 -186 98 -36 37 -72 42 -99 12 -27 -30 -95 -27 -151 6 -38 22 -44 31 -44 58 0 61 -17 71 -118 71 -82 0 -93 2 -116 24 -34 32 -33 63 3 99 22 21 28 35 24 51 -7 29 -47 54 -72 46 -27 -8 -33 7 -16 42 13 26 12 34 -9 87 -24 58 -24 59 -6 101 30 69 53 181 45 212 -5 15 -8 52 -7 82 0 48 -3 58 -28 80 -25 24 -28 34 -34 119 -4 65 -2 100 6 115 7 12 16 56 21 97 9 79 9 343 1 373 -4 11 -15 17 -36 17 -19 0 -28 4 -25 13 2 6 16 11 31 10 29 -2 34 8 11 27 -22 18 -19 57 5 63 17 4 20 14 20 54 0 27 -7 71 -16 97 -20 58 -11 70 21 31 17 -23 25 -26 28 -15 10 35 30 117 35 143 2 15 11 27 18 27 18 0 18 9 -1 53 -8 20 -15 42 -15 48 0 18 40 -22 40 -40 1 -13 4 -12 16 4 10 14 13 31 9 55 -7 34 -6 34 13 17 19 -17 20 -17 36 7 26 41 15 66 -14 31 -28 -34 -72 -2 -90 67 -14 52 -33 69 -70 62 -16 -4 -62 5 -110 21 -73 23 -217 44 -303 45 -49 0 -31 -38 40 -87 43 -30 75 -64 105 -110 24 -36 47 -72 53 -79 5 -7 6 -16 2 -20 -11 -11 -55 35 -94 98 -23 39 -49 67 -79 84 -82 48 -96 100 -43 159 34 37 54 37 45 -1 -6 -23 -5 -24 51 -24 32 0 75 -3 96 -6 30 -5 36 -4 32 8 -7 17 19 42 57 57 22 8 33 6 63 -14 20 -14 40 -25 45 -25 10 0 81 96 97 133 7 16 51 67 97 115 88 91 128 140 185 231 34 53 34 53 17 85 -9 18 -28 45 -41 61 -14 15 -48 65 -77 111 l-53 83 -517 1 -518 0 0 -646z m3118 564 c-5 -14 -61 -30 -92 -26 -33 5 -21 22 21 29 63 10 75 10 71 -3z m350 -121 c3 -28 -32 -97 -49 -97 -14 0 -11 18 8 47 9 14 16 39 15 55 -3 38 22 33 26 -5z m-68 -46 c-5 -11 -15 -23 -21 -27 -14 -8 -167 -43 -191 -44 -50 0 18 43 86 55 19 4 52 13 73 21 55 19 66 18 53 -5z m-10 -236 c0 -11 -62 -114 -75 -125 -8 -7 -31 -16 -52 -21 -43 -10 -183 -1 -183 12 0 5 32 9 71 9 39 0 78 4 88 9 10 6 42 35 72 65 47 48 79 69 79 51z m-1920 -145 c0 -5 -15 -10 -33 -10 -51 0 -129 -27 -174 -59 -36 -26 -44 -40 -68 -116 -15 -47 -30 -84 -32 -81 -6 5 16 123 29 158 12 32 79 74 158 99 61 20 120 24 120 9z m117 -6 c-3 -3 -12 -4 -19 -1 -8 3 -5 6 6 6 11 1 17 -2 13 -5z m1583 -33 c0 -5 -17 -21 -37 -37 -21 -16 -44 -34 -52 -42 -7 -7 -16 -11 -18 -8 -11 11 8 36 48 66 43 31 59 37 59 21z m-1490 -100 c0 -5 -7 -14 -15 -21 -12 -10 -28 -10 -78 1 l-62 14 65 6 c36 3 71 6 78 7 6 1 12 -2 12 -7z m936 -403 c-7 -37 -45 -115 -62 -129 -7 -6 -34 -18 -61 -28 -26 -10 -55 -22 -65 -26 -14 -6 -15 -2 -6 34 8 33 13 39 24 30 18 -14 58 -4 81 20 10 11 31 45 47 75 32 62 52 73 42 24z m-1941 -31 c28 -47 55 -99 55 -109 0 -19 -28 -6 -40 20 -8 15 -22 38 -31 52 -9 14 -20 35 -23 48 -11 34 16 27 39 -11z m1153 -136 c6 0 12 -5 12 -10 0 -11 -266 -22 -294 -12 -14 6 17 12 94 18 101 8 131 9 188 4z m-368 -40 c-70 -19 -177 -34 -167 -25 8 8 176 42 207 42 14 0 -4 -8 -40 -17z m-210 -52 c0 -14 -36 -11 -49 4 -8 11 -5 13 19 9 17 -2 30 -8 30 -13z m-895 -157 c13 -11 21 -22 18 -26 -10 -10 -73 -7 -73 4 0 6 -17 18 -37 27 -50 23 -50 23 -34 32 17 11 95 -12 126 -37z m104 -27 c40 -14 64 -13 186 7 15 2 19 -2 18 -18 -3 -23 19 -34 70 -34 15 0 27 -5 27 -11 0 -8 -16 -9 -52 -5 -29 4 -91 9 -138 12 -80 5 -170 28 -170 44 0 6 11 20 15 20 2 0 21 -7 44 -15z m1219 4 c40 17 75 1 96 -43 20 -43 25 -111 8 -128 -18 -18 -23 -5 -12 33 12 40 -1 88 -30 114 -16 15 -23 15 -54 4 -28 -10 -38 -10 -50 0 -9 8 -16 18 -16 23 0 6 7 5 15 -2 12 -10 21 -10 43 -1z m776 -238 c18 -39 19 -90 1 -81 -5 3 -9 7 -8 10 1 3 4 12 8 21 3 9 0 23 -8 30 -8 8 -19 24 -26 37 -9 18 -9 22 2 22 8 0 22 -17 31 -39z m-357 -8 c-4 -3 -10 -3 -14 0 -3 4 0 7 7 7 7 0 10 -3 7 -7z m458 -175 c8 -45 2 -56 -20 -38 -10 8 -15 30 -15 64 1 46 2 49 15 33 7 -11 17 -37 20 -59z m-111 16 c11 -30 6 -37 -14 -19 -11 10 -20 22 -20 27 0 15 28 9 34 -8z m-398 -69 c18 -28 45 -32 63 -11 16 19 51 27 51 12 0 -34 -71 -62 -162 -65 -47 -2 -48 -1 -48 28 0 56 67 81 96 36z m-211 -35 c-4 -6 -18 -4 -36 5 -16 9 -27 20 -24 25 4 6 18 4 36 -5 16 -9 27 -20 24 -25z m-508 -55 l28 -24 -42 -2 c-24 -1 -50 -3 -60 -3 -23 -1 -27 19 -8 38 23 23 49 20 82 -9z m-172 -56 c15 -14 -47 -10 -80 6 -29 13 -29 13 20 8 28 -3 54 -10 60 -14z m930 -16 c-22 -16 -180 -18 -190 -3 -4 6 23 10 72 11 43 0 87 4 98 8 28 12 42 1 20 -16z m-580 -23 c-9 -14 -75 -43 -82 -37 -5 5 80 55 86 51 1 -1 0 -8 -4 -14z m-115 -35 c0 -3 -15 -14 -32 -25 -36 -22 -118 -28 -118 -9 0 6 9 9 20 6 20 -5 93 12 106 26 8 8 24 9 24 2z m-266 -56 c-5 -9 -64 10 -64 21 0 4 16 3 35 -2 19 -6 32 -15 29 -19z m33 4 c-4 -3 -10 -3 -14 0 -3 4 0 7 7 7 7 0 10 -3 7 -7z m560 -625 c-2 -9 -20 -12 -50 -10 -25 2 -55 -1 -66 -7 -25 -14 -39 4 -14 18 27 16 136 14 130 -1z"/>
 <path d="M1960 1491 c0 -6 5 -13 10 -16 15 -9 71 5 64 16 -7 12 -74 12 -74 0z"/>
 <path d="M1200 3565 c19 -20 58 -49 87 -65 50 -29 55 -29 78 -14 24 15 25 15 71 -30 26 -26 56 -46 68 -46 12 0 38 -12 59 -26 34 -23 74 -27 65 -7 -2 5 -28 56 -58 116 l-54 107 -175 0 -175 0 34 -35z"/>
 <path d="M1610 3592 c0 -4 6 -16 14 -27 7 -11 19 -38 26 -60 14 -44 76 -141 106 -166 31 -26 144 -89 160 -89 29 0 19 30 -72 215 -30 61 -54 116 -54 123 0 9 -25 12 -90 12 -49 0 -90 -3 -90 -8z"/>
 <path d="M1866 3573 c3 -16 10 -41 15 -57 5 -16 9 -40 9 -53 0 -31 42 -112 72 -139 26 -25 93 -48 108 -39 5 3 10 17 10 31 0 21 5 24 35 24 29 0 40 -7 77 -54 50 -62 99 -99 125 -94 22 5 21 17 -6 88 -12 30 -21 71 -22 90 0 19 -15 78 -32 130 l-32 95 -183 3 -182 2 6 -27z"/>
 <path d="M2270 3572 c0 -67 90 -278 160 -376 59 -82 180 -140 141 -67 -19 34 38 61 66 32 17 -18 85 -51 104 -51 17 0 -50 121 -96 172 -26 29 -59 70 -73 91 -13 20 -28 37 -32 37 -9 0 -128 154 -137 176 -4 10 -23 14 -69 14 -64 0 -64 0 -64 -28z m250 -251 c32 -79 35 -91 21 -91 -10 0 -56 103 -66 150 -11 54 9 26 45 -59z"/>
 <path d="M1267 3346 c-7 -17 11 -36 35 -36 22 0 23 13 2 34 -19 20 -30 20 -37 2z"/>
 <path d="M1340 3288 c0 -7 35 -40 77 -73 42 -33 100 -81 127 -106 60 -54 168 -129 187 -129 20 0 -40 57 -80 76 -51 23 -69 42 -90 90 -27 60 -64 97 -126 128 -58 28 -95 34 -95 14z"/>
 <path d="M1300 3270 c0 -7 3 -10 7 -7 3 4 3 10 0 14 -4 3 -7 0 -7 -7z"/>
 <path d="M1270 3235 c-7 -8 -19 -15 -26 -15 -22 0 -89 -99 -123 -183 -35 -86 -61 -241 -43 -259 7 -7 15 7 27 48 9 33 29 86 45 119 16 33 40 87 55 120 14 33 34 69 44 80 18 21 46 94 38 101 -2 2 -10 -2 -17 -11z"/>
 <path d="M2756 3242 c-7 -11 5 -27 31 -41 48 -25 73 -2 35 32 -19 18 -57 23 -66 9z"/>
 <path d="M1972 3029 c-51 -60 -46 -78 25 -105 27 -10 58 -26 71 -35 59 -45 73 28 15 77 -33 28 -38 37 -37 73 2 56 -19 53 -74 -10z"/>
 <path d="M2465 3040 c-14 -22 53 -109 74 -95 21 12 11 43 -24 74 -40 34 -41 35 -50 21z"/>
 <path d="M910 2765 c-7 -9 -10 -18 -7 -22 8 -7 37 15 37 28 0 14 -16 11 -30 -6z"/>
 <path d="M1060 2664 c-13 -33 -13 -115 0 -93 11 19 25 119 16 119 -4 0 -11 -12 -16 -26z"/>
 <path d="M2070 2661 c0 -11 26 -22 34 -14 3 3 3 10 0 14 -7 12 -34 11 -34 0z"/>
 <path d="M2707 2443 c-4 -3 -7 -11 -7 -17 0 -6 5 -5 12 2 6 6 9 14 7 17 -3 3 -9 2 -12 -2z"/>
 <path d="M2507 954 c-13 -13 -7 -34 9 -34 13 0 15 -6 9 -27 -5 -21 -4 -25 5 -17 6 6 10 26 8 44 -3 33 -17 48 -31 34z"/>
 <path d="M1020 671 c0 -12 -4 -21 -10 -21 -5 0 -10 7 -10 15 0 8 -4 15 -9 15 -11 0 -24 -48 -16 -60 10 -16 32 -12 39 7 6 15 8 14 21 -4 14 -19 56 -39 54 -25 0 4 -10 25 -22 46 -25 45 -47 58 -47 27z"/>
 <path d="M1015 521 c-3 -5 -1 -12 5 -16 18 -11 10 -25 -15 -25 -15 0 -25 -6 -25 -14 0 -17 69 -31 102 -20 47 14 60 70 14 58 -14 -3 -27 1 -35 10 -15 18 -37 21 -46 7z"/>
 <path d="M1136 513 c-8 -8 49 -47 99 -67 42 -18 60 -15 23 4 -12 7 -32 21 -43 31 -24 21 -71 40 -79 32z"/>
 <path d="M2400 370 c0 -7 3 -10 7 -7 3 4 3 10 0 14 -4 3 -7 0 -7 -7z"/>
 </g>
<g id="layer106" fill="#bbbbbb" stroke="none">
 <path d="M0 2962 l0 -639 26 -24 c15 -13 33 -40 41 -59 17 -38 47 -79 104 -141 26 -28 45 -39 65 -39 48 0 99 -19 124 -45 27 -29 27 -30 -22 -38 -30 -5 -40 -2 -48 13 -5 10 -23 21 -40 25 -16 4 -30 13 -30 21 0 7 -17 21 -37 29 -20 9 -53 28 -72 43 -20 14 -45 25 -58 24 -15 -2 -26 5 -37 25 -14 25 -15 -80 -16 -1064 l0 -1093 1800 0 1800 0 0 1800 0 1800 -66 0 c-43 0 -71 -5 -78 -13 -15 -19 -170 -87 -196 -87 -30 0 -22 31 10 41 14 4 52 19 85 34 l60 26 -93 -5 c-62 -4 -110 -13 -139 -26 -25 -11 -52 -20 -59 -20 -19 0 -17 20 4 36 15 12 9 13 -41 14 -44 0 -65 -5 -84 -20 -31 -24 -58 -25 -109 -3 -27 11 -80 18 -171 21 l-131 5 -4 -29 c-2 -23 -7 -29 -25 -27 -13 2 -23 -1 -23 -6 0 -20 93 -99 149 -126 34 -16 61 -34 61 -40 0 -19 133 -74 210 -86 91 -15 124 -45 119 -106 0 -5 10 -11 23 -15 67 -18 193 1 216 34 7 10 18 16 23 12 5 -3 0 -18 -11 -35 -15 -20 -38 -34 -77 -45 -53 -15 -72 -15 -188 1 -16 2 -51 -1 -77 -6 -37 -8 -54 -20 -86 -57 -43 -52 -59 -87 -42 -97 17 -10 11 -47 -14 -95 -30 -57 -22 -72 54 -94 64 -19 61 -19 58 -5 -5 22 20 20 27 -1 4 -12 22 -28 41 -36 23 -10 32 -19 27 -29 -7 -19 -55 -45 -82 -45 -11 0 -32 -8 -49 -17 -31 -18 -62 -12 -62 11 0 14 55 36 92 36 9 0 19 4 22 9 7 11 -111 51 -148 51 -18 0 -27 8 -35 30 -11 32 -24 36 -66 20 -20 -8 -35 -6 -65 10 -22 11 -41 20 -44 20 -13 0 11 -39 47 -77 40 -42 40 -42 35 -107 -3 -35 -2 -68 2 -73 13 -15 60 -134 60 -152 0 -10 -8 -25 -17 -33 -17 -15 -178 -98 -288 -149 -27 -13 -58 -32 -67 -44 -27 -31 -38 -4 -38 97 0 48 -7 117 -15 155 -8 37 -20 93 -27 123 -13 63 -47 129 -94 182 -18 20 -37 46 -44 57 -28 53 -33 0 -15 -168 6 -59 11 -69 51 -110 34 -37 46 -43 56 -33 19 19 28 14 28 -13 0 -14 4 -25 9 -25 5 0 9 -17 8 -37 0 -21 7 -57 17 -81 29 -76 5 -67 -40 15 -51 94 -144 198 -216 244 -99 62 -193 147 -317 289 -29 34 -70 72 -90 84 -20 13 -97 73 -171 135 -74 61 -140 111 -148 111 -7 0 -20 -17 -29 -37 -8 -21 -27 -56 -42 -78 -15 -22 -48 -83 -73 -135 -40 -81 -50 -117 -73 -245 -15 -82 -28 -160 -31 -172 -2 -12 -24 -45 -50 -75 -56 -66 -97 -140 -133 -243 -52 -147 -55 -192 -41 -739 0 -31 50 -10 100 43 56 60 124 87 252 100 157 16 220 -5 275 -88 44 -68 59 -81 95 -81 35 0 78 40 78 71 0 13 9 42 20 65 17 34 31 46 73 64 125 55 334 86 408 61 19 -6 65 -38 103 -71 38 -33 77 -62 88 -66 25 -8 23 -41 -4 -55 -13 -6 -46 -33 -74 -59 -77 -72 -117 -87 -280 -100 -148 -11 -154 -11 -244 33 -33 16 -62 21 -105 20 -74 -1 -97 -10 -204 -78 -59 -36 -105 -57 -146 -66 -78 -16 -256 -15 -295 1 -49 20 -62 8 -58 -53 2 -28 13 -91 23 -139 20 -89 17 -111 -10 -88 -12 10 -14 23 -9 55 4 30 2 46 -8 56 -8 8 -15 29 -15 47 0 19 -5 37 -12 41 -7 5 -10 18 -6 33 5 18 -1 33 -21 57 -29 34 -25 53 6 33 31 -19 47 -13 21 8 -50 43 -78 19 -83 -71 -3 -52 -2 -54 27 -63 l30 -9 1 -202 c1 -191 3 -205 23 -239 20 -33 27 -36 67 -36 24 0 44 5 44 10 0 6 -9 10 -20 10 -11 0 -20 4 -20 9 0 5 -9 13 -20 16 -25 8 -26 42 -1 50 35 11 49 -7 109 -128 l59 -122 89 -60 c49 -33 94 -66 100 -74 9 -12 17 -10 46 12 19 15 60 36 91 46 31 11 68 28 84 39 20 15 52 22 114 26 78 6 87 5 104 -14 21 -23 45 -26 45 -5 0 21 28 33 84 36 32 2 51 -1 54 -9 2 -8 28 -12 77 -12 93 0 170 32 239 101 27 27 55 49 63 49 8 0 36 47 65 108 33 71 62 118 87 139 26 23 31 32 19 33 -10 0 -22 -9 -28 -20 -11 -21 -30 -27 -30 -9 0 24 42 68 71 74 25 6 29 10 23 28 -4 12 -11 24 -15 25 -12 5 -11 36 1 48 12 12 -3 105 -22 142 -10 19 -9 25 1 31 19 12 -6 87 -35 106 -31 20 -99 94 -99 108 0 6 5 12 11 14 11 4 33 -17 73 -67 11 -14 20 -19 21 -12 0 7 -16 28 -34 47 -30 30 -33 36 -18 44 14 8 14 12 3 25 -16 19 -9 31 14 23 8 -4 15 -18 15 -32 0 -15 11 -41 25 -60 50 -65 80 -262 91 -601 7 -201 7 -201 -20 -280 -20 -58 -39 -91 -72 -126 -47 -50 -50 -65 -34 -148 9 -51 7 -58 -14 -41 -25 21 -56 -3 -56 -44 0 -33 -2 -35 -34 -35 -33 0 -92 -33 -108 -60 -4 -8 -13 -28 -19 -45 l-11 -30 -26 31 c-45 52 -57 55 -213 56 -50 0 -115 -36 -135 -75 -9 -17 -18 -33 -19 -35 -2 -3 -9 0 -102 37 -28 12 -70 21 -93 21 -57 0 -98 20 -151 72 -61 61 -81 66 -129 33 -31 -22 -44 -25 -76 -20 -22 4 -56 19 -76 32 -31 21 -38 32 -38 59 0 21 -8 42 -20 54 -18 18 -28 20 -84 14 -79 -8 -105 -2 -139 32 -34 34 -34 48 3 81 32 28 40 69 18 91 -7 7 -29 12 -50 12 -31 0 -38 4 -38 19 0 11 4 23 10 26 16 10 12 49 -11 101 -17 40 -18 53 -8 74 28 60 52 148 51 190 0 102 -14 175 -37 200 -31 34 -44 187 -21 242 9 20 15 61 14 91 -1 33 4 62 11 71 9 11 11 30 7 58 -3 24 -6 84 -7 133 -1 50 -5 97 -10 106 -9 18 -141 32 -274 31 -54 -1 -80 4 -114 21 -51 25 -55 43 -8 39 138 -11 183 -10 200 6 18 16 20 15 32 -2 8 -10 11 -24 8 -32 -5 -14 41 -20 112 -15 38 3 45 10 22 22 -24 14 -23 59 2 59 35 0 41 69 12 153 -17 50 -18 57 -5 57 9 0 24 -10 33 -22 18 -21 18 -20 34 45 10 36 17 78 17 92 0 15 4 24 10 20 19 -12 22 23 5 55 -12 22 -14 35 -6 43 12 12 41 -8 41 -30 0 -8 5 -11 10 -8 19 12 11 73 -14 102 -13 15 -30 51 -38 78 l-14 50 -59 6 c-33 4 -101 18 -152 32 -116 32 -263 40 -263 15 0 -18 39 -53 89 -80 17 -9 44 -39 60 -65 16 -26 40 -61 53 -78 13 -16 30 -43 38 -60 8 -16 20 -37 28 -46 19 -24 52 -91 52 -107 0 -8 -8 -12 -21 -10 -16 2 -34 27 -66 87 -24 47 -60 102 -79 124 -19 23 -34 45 -34 49 0 20 -55 79 -86 94 -36 17 -74 69 -74 100 1 30 64 98 84 91 12 -5 15 -13 11 -27 -6 -18 -2 -20 32 -21 46 -1 69 -4 106 -14 23 -6 27 -4 27 13 0 27 45 62 80 62 15 0 40 -10 55 -22 l28 -22 24 30 c14 16 33 39 43 50 10 12 23 37 29 57 8 23 31 50 70 81 57 44 126 128 205 248 l38 58 -23 37 c-12 21 -32 49 -44 63 -12 14 -46 62 -75 108 l-52 82 -509 0 -509 0 0 -638z m3130 557 c0 -16 -38 -29 -84 -29 -65 0 -61 24 7 36 54 10 77 8 77 -7z m340 -123 c0 -34 -34 -106 -50 -106 -19 0 -19 20 0 53 14 24 19 43 14 61 -5 22 -3 26 15 26 17 0 21 -6 21 -34z m-60 -29 c0 -29 -47 -55 -138 -76 -87 -21 -112 -21 -112 -2 0 12 84 46 159 65 36 9 67 19 70 21 9 10 21 5 21 -8z m-20 -251 c0 -31 -69 -133 -98 -145 -36 -15 -214 -11 -219 5 -3 8 25 14 82 19 l85 7 67 64 c69 66 83 74 83 50z m-1792 -155 c22 -13 16 -13 -47 -1 -75 14 -211 -11 -273 -51 -49 -32 -47 -29 -99 -177 -12 -34 -24 -60 -26 -58 -6 5 24 147 39 188 12 33 64 68 143 97 51 18 74 21 153 17 51 -3 101 -10 110 -15z m1582 -36 c0 -8 -5 -15 -11 -15 -7 0 -31 -16 -55 -35 -73 -60 -91 -40 -22 25 42 41 88 54 88 25z m-1500 -99 c0 -29 -24 -36 -75 -21 -26 8 -60 16 -74 17 -14 1 6 4 44 8 39 4 78 7 88 8 9 1 17 -4 17 -12z m-533 -208 c-3 -7 -5 -2 -5 12 0 14 2 19 5 13 2 -7 2 -19 0 -25z m688 -361 c15 -12 -7 -15 -156 -21 -98 -4 -196 -13 -224 -21 -27 -8 -70 -16 -95 -19 -25 -2 -54 -7 -65 -11 -17 -7 -18 -6 -7 6 17 19 160 47 322 63 181 18 203 18 225 3z m-596 -77 c12 0 21 -4 21 -10 0 -5 -9 -10 -21 -10 -25 0 -59 17 -59 31 0 6 7 6 19 -1 11 -5 29 -10 40 -10z m443 -186 c45 17 79 -7 102 -75 17 -49 18 -60 7 -88 -21 -50 -31 -36 -24 33 5 60 4 66 -21 91 -19 19 -32 24 -44 19 -34 -15 -76 -10 -80 10 -3 14 -1 16 13 8 12 -6 28 -6 47 2z m787 -271 c11 -39 5 -63 -15 -63 -16 0 -19 21 -4 36 6 6 1 22 -16 46 -15 21 -23 42 -18 49 10 17 40 -22 53 -68z m87 -150 c7 -49 4 -56 -20 -47 -12 5 -16 20 -16 68 1 55 2 59 15 42 8 -10 17 -39 21 -63z m-451 -202 c11 -19 -36 -31 -124 -31 -49 0 -92 4 -95 9 -8 13 10 17 94 20 41 2 77 5 79 7 8 8 40 4 46 -5z m-600 -40 c-10 -18 -65 -43 -83 -38 -11 2 0 12 33 28 52 26 62 28 50 10z m-107 -33 c-3 -7 -25 -23 -51 -36 -35 -19 -55 -23 -82 -18 -50 10 -43 22 15 29 28 3 63 13 78 20 35 19 45 20 40 5z m-263 -48 l40 -6 -33 -7 c-34 -7 -75 4 -87 23 -5 9 -1 10 16 4 13 -4 42 -10 64 -14z m583 -622 c22 -22 12 -29 -40 -27 -29 2 -65 -1 -80 -5 -22 -6 -28 -5 -28 7 0 30 122 51 148 25z"/>
 <path d="M1190 3596 c0 -8 75 -76 83 -76 5 0 21 -9 37 -20 24 -17 29 -18 46 -5 27 20 28 20 84 -30 29 -26 61 -45 74 -45 13 0 35 -9 50 -21 48 -38 46 -15 -8 91 l-54 105 -156 3 c-86 1 -156 0 -156 -2z"/>
 <path d="M1656 3523 c57 -127 95 -177 153 -204 28 -12 51 -26 51 -29 0 -10 51 -32 58 -25 3 3 -2 21 -11 40 -9 20 -17 44 -17 54 0 10 -22 53 -48 97 -26 43 -54 94 -61 112 l-13 32 -74 0 -73 0 35 -77z"/>
 <path d="M1887 3523 c6 -81 33 -152 70 -185 10 -10 38 -24 61 -32 40 -14 42 -14 42 4 0 11 9 24 19 30 42 22 64 11 137 -65 39 -41 79 -75 88 -75 17 0 22 29 8 45 -16 19 -35 94 -29 117 4 14 -7 64 -29 131 l-36 107 -169 0 -169 0 7 -77z"/>
 <path d="M2280 3579 c-15 -26 16 -120 79 -244 61 -120 97 -168 149 -199 48 -29 71 -34 53 -12 -17 20 -4 43 32 55 26 9 34 8 51 -8 12 -10 35 -26 53 -35 l32 -16 -25 57 c-14 31 -42 73 -62 93 -20 20 -50 56 -67 80 -16 25 -44 59 -62 75 -17 17 -40 44 -50 60 -10 17 -32 49 -48 72 -28 39 -33 42 -77 43 -38 0 -50 -4 -58 -21z m234 -228 c34 -76 44 -125 25 -119 -15 5 -78 151 -79 182 0 31 24 2 54 -63z"/>
 <path d="M1283 3333 c4 -3 10 -3 14 0 3 4 0 7 -7 7 -7 0 -10 -3 -7 -7z"/>
 <path d="M1350 3283 c0 -5 31 -32 68 -61 37 -28 90 -72 117 -98 28 -25 68 -57 90 -72 22 -15 42 -29 45 -32 3 -3 16 -11 30 -19 l25 -13 -23 23 c-12 13 -43 35 -69 49 -32 17 -53 38 -68 66 -37 70 -78 115 -129 140 -49 24 -86 31 -86 17z"/>
 <path d="M1270 3230 c0 -5 -6 -10 -13 -10 -22 0 -76 -75 -117 -163 -28 -60 -42 -105 -49 -166 -6 -47 -9 -86 -7 -89 7 -7 23 31 30 72 4 22 24 71 44 110 20 39 45 89 55 111 11 22 28 49 37 60 18 20 37 85 26 85 -3 0 -6 -4 -6 -10z"/>
 <path d="M2770 3232 c0 -8 43 -32 57 -32 3 0 -2 9 -12 20 -18 20 -45 27 -45 12z"/>
 <path d="M1996 3041 c-17 -17 -26 -31 -22 -31 4 0 0 -7 -8 -16 -9 -8 -16 -20 -16 -25 0 -8 137 -79 153 -79 20 0 2 42 -28 67 -27 21 -37 39 -43 71 l-7 43 -29 -30z"/>
 <path d="M2470 3035 c1 -18 58 -80 66 -72 5 4 -9 24 -29 45 -20 20 -37 32 -37 27z"/>
 <path d="M914 2758 c-4 -7 -3 -8 4 -4 12 7 16 16 8 16 -3 0 -8 -5 -12 -12z"/>
 <path d="M1062 2643 c-1 -17 -5 -40 -8 -50 -5 -14 -4 -15 5 -7 7 7 11 28 8 50 -3 35 -4 35 -5 7z"/>
 <path d="M2510 2538 c0 -12 5 -36 11 -53 10 -27 8 -38 -16 -85 -15 -30 -34 -63 -43 -73 -19 -22 -12 -30 22 -21 26 6 77 68 90 110 9 30 42 58 51 44 7 -11 -11 -77 -28 -97 -15 -20 8 -16 24 5 25 29 62 120 56 135 -5 14 -120 57 -152 57 -9 0 -15 -9 -15 -22z"/>
 <path d="M1006 2531 c-10 -11 -13 -22 -8 -25 6 -3 17 5 26 19 19 29 7 33 -18 6z"/>
 <path d="M2454 2403 c-10 -21 -22 -40 -26 -43 -12 -9 -28 -60 -28 -88 0 -21 2 -24 10 -12 5 8 10 25 10 38 0 12 7 25 15 28 8 4 15 15 15 26 0 12 9 36 21 54 11 19 16 34 11 34 -5 0 -17 -17 -28 -37z"/>
 <path d="M2010 1729 c-119 -19 -221 -60 -262 -106 -24 -27 -43 -99 -32 -124 23 -51 199 -84 339 -63 127 18 162 32 207 83 33 38 39 51 34 76 -7 38 -65 90 -134 121 -56 26 -67 26 -152 13z m40 -214 c28 -30 31 -30 60 -5 44 38 77 16 37 -24 -16 -16 -41 -26 -73 -31 -27 -3 -61 -8 -76 -10 -39 -6 -60 18 -47 53 19 49 62 57 99 17z m-235 -7 c25 -11 35 -38 15 -38 -21 0 -71 31 -65 40 8 13 19 13 50 -2z"/>
 <path d="M1970 1490 c0 -5 14 -10 31 -10 17 0 28 4 24 10 -3 6 -17 10 -31 10 -13 0 -24 -4 -24 -10z"/>
 <path d="M1220 1633 c-130 -15 -240 -74 -240 -128 0 -35 30 -158 42 -172 45 -55 394 15 458 92 34 41 -10 148 -75 186 -31 18 -125 30 -185 22z m107 -205 c13 -12 23 -24 23 -27 0 -4 -27 -7 -60 -8 -50 -1 -60 2 -60 16 0 43 59 55 97 19z m-222 -44 c17 -1 36 -3 43 -3 17 -1 15 -18 -2 -24 -21 -8 -82 11 -97 30 -12 15 -12 16 6 8 11 -5 34 -10 50 -11z"/>
 <path d="M880 1470 c0 -5 5 -10 11 -10 5 0 7 5 4 10 -3 6 -8 10 -11 10 -2 0 -4 -4 -4 -10z"/>
 <path d="M920 1451 c5 -11 10 -31 10 -44 0 -13 8 -31 18 -40 23 -21 32 -21 32 -2 0 8 -4 15 -10 15 -18 0 -30 38 -20 64 9 24 7 26 -16 26 -21 0 -23 -3 -14 -19z"/>
 <path d="M2505 941 c-7 -12 12 -24 25 -16 11 7 4 25 -10 25 -5 0 -11 -4 -15 -9z"/>
 <path d="M1020 671 c0 -5 7 -14 15 -21 8 -7 13 -16 10 -20 -5 -9 23 -35 30 -28 8 8 -29 78 -42 78 -7 0 -13 -4 -13 -9z"/>
 <path d="M986 635 c4 -8 8 -15 10 -15 2 0 4 7 4 15 0 8 -4 15 -10 15 -5 0 -7 -7 -4 -15z"/>
 <path d="M1035 501 c4 -14 -1 -20 -22 -26 -28 -8 -27 -8 12 -17 25 -6 48 -5 63 1 30 14 29 41 -2 41 -14 0 -28 5 -31 10 -11 18 -27 11 -20 -9z"/>
 <path d="M1170 490 c8 -6 24 -16 35 -22 20 -11 20 -11 1 11 -11 11 -26 21 -35 21 -14 0 -14 -2 -1 -10z"/>
 </g>
<g id="layer107" fill="#c9c9c9" stroke="none">
 <path d="M2190 3590 c0 -7 3 -10 7 -7 3 4 3 10 0 14 -4 3 -7 0 -7 -7z"/>
 <path d="M3462 3577 c-27 -28 -28 -37 -4 -38 11 -1 9 -3 -7 -8 -23 -6 -23 -7 -7 -23 13 -14 15 -22 6 -37 -8 -16 -6 -22 10 -31 13 -7 20 -21 20 -38 0 -33 -56 -126 -70 -117 -6 4 -10 3 -9 -2 2 -8 -13 -49 -32 -85 -13 -26 -11 -31 9 -23 14 5 15 4 5 -6 -17 -17 -16 -29 2 -29 8 0 15 -4 15 -10 0 -5 8 -7 18 -4 15 5 15 5 0 -5 -9 -6 -28 -32 -43 -58 -33 -57 -74 -103 -92 -103 -7 0 -17 -9 -23 -20 -6 -11 -22 -23 -35 -26 -14 -3 -25 -10 -25 -16 0 -5 -9 -6 -20 -3 -23 7 -79 -33 -72 -53 2 -7 -3 -12 -12 -12 -8 0 -18 -5 -22 -12 -5 -7 0 -9 14 -6 14 4 19 2 16 -7 -3 -7 -14 -11 -24 -8 -16 4 -18 1 -14 -21 2 -14 0 -26 -4 -26 -5 0 -7 -10 -5 -22 3 -17 -3 -27 -25 -40 -17 -10 -35 -18 -42 -18 -22 0 -85 -34 -111 -60 -38 -36 -57 -50 -69 -50 -5 0 -10 -4 -10 -10 0 -5 -6 -10 -14 -10 -7 0 -16 -10 -20 -22 -8 -31 -7 -40 2 -35 4 3 7 -11 8 -31 1 -39 -19 -65 -59 -78 -11 -3 -42 -19 -69 -35 -27 -16 -53 -29 -59 -29 -11 0 -72 -41 -77 -51 -2 -4 -12 -5 -22 -2 -12 3 -20 0 -20 -6 0 -7 -4 -10 -9 -6 -5 3 -27 -11 -48 -30 -35 -32 -39 -33 -50 -18 -7 9 -13 30 -13 45 0 16 -9 36 -20 45 -11 10 -20 21 -20 26 0 42 -172 246 -245 291 l-30 19 19 -22 c11 -11 17 -24 14 -27 -3 -3 -14 5 -24 18 -11 13 -34 28 -51 35 -28 10 -35 9 -44 -5 -10 -16 -10 -16 -5 0 2 9 -2 19 -9 22 -18 6 -29 -10 -19 -26 5 -9 2 -8 -10 1 -12 10 -13 16 -6 21 8 5 6 9 -5 14 -11 4 -14 12 -10 25 5 15 0 21 -24 26 -17 4 -36 3 -42 -1 -8 -4 -9 -3 -5 4 4 7 2 12 -4 12 -6 0 -18 7 -27 15 -8 8 -19 13 -24 10 -5 -4 -9 1 -9 9 0 9 -6 16 -14 16 -8 0 -16 5 -18 11 -2 6 -26 12 -53 15 -28 2 -77 10 -110 18 l-60 14 68 1 c38 1 77 6 88 12 24 12 53 -6 45 -28 -3 -7 1 -13 10 -13 8 0 13 4 9 9 -3 5 -1 12 5 16 5 3 10 -1 10 -10 0 -9 5 -13 11 -10 13 9 4 52 -26 113 -17 35 -36 57 -67 75 -24 14 -99 73 -168 131 -69 58 -131 105 -138 106 -7 0 -20 -16 -28 -35 -8 -19 -29 -59 -48 -88 -18 -28 -37 -63 -41 -75 -4 -13 -20 -45 -36 -70 -28 -46 -31 -59 -84 -345 -13 -69 -20 -84 -58 -127 -89 -98 -158 -269 -177 -435 -10 -90 -5 -537 6 -557 9 -15 66 16 94 51 44 57 123 88 250 100 162 15 225 -3 276 -82 52 -79 65 -90 102 -83 48 7 60 21 72 84 17 84 29 95 138 133 91 31 191 49 278 49 79 0 84 -1 143 -41 33 -22 61 -44 61 -47 0 -4 23 -22 50 -41 51 -35 65 -66 33 -74 -11 -3 -8 -5 9 -6 22 -1 26 2 21 16 -5 12 -3 14 8 8 12 -8 12 -6 0 9 -13 15 -13 19 0 26 17 11 37 -6 41 -35 2 -11 15 -38 28 -60 30 -48 59 -152 60 -215 0 -25 5 -63 10 -85 5 -22 12 -134 15 -250 4 -116 8 -215 10 -222 2 -7 -9 -51 -25 -99 -20 -60 -39 -98 -63 -123 -54 -57 -59 -72 -47 -142 12 -65 3 -92 -19 -65 -21 25 -51 2 -51 -38 0 -32 -2 -34 -44 -40 -57 -9 -93 -37 -107 -87 -7 -21 -17 -39 -22 -39 -5 0 -24 16 -41 36 l-32 37 -98 4 c-85 3 -103 1 -141 -18 -26 -13 -50 -35 -62 -56 -11 -20 -23 -31 -31 -28 -8 3 -26 8 -40 12 -15 3 -37 12 -48 20 -12 8 -56 18 -97 22 -66 8 -82 13 -119 44 -24 20 -51 45 -60 56 -24 28 -79 28 -104 0 -42 -47 -184 9 -184 72 0 15 -11 40 -23 55 -24 27 -24 27 -84 15 -54 -12 -65 -11 -97 4 -39 19 -66 49 -66 75 0 9 13 27 30 42 50 44 31 98 -35 98 -37 0 -52 21 -29 40 15 13 19 66 5 74 -15 10 -34 95 -24 108 18 23 55 149 55 186 -1 20 -4 70 -8 110 -5 62 -10 75 -32 93 -21 16 -25 28 -24 57 1 20 -2 61 -8 90 -8 44 -7 59 6 84 9 17 17 59 18 92 1 34 8 71 15 84 6 12 10 37 7 55 -3 17 -8 79 -11 136 -3 69 -9 107 -17 113 -7 4 -40 8 -73 8 -33 1 -79 5 -103 9 -46 9 -65 0 -77 -39 -3 -11 -11 -20 -16 -20 -5 0 -9 -7 -9 -16 0 -9 -30 15 -72 56 -65 64 -75 71 -107 68 -31 -3 -36 -7 -49 -48 -13 -37 -16 -41 -22 -24 -4 11 -15 26 -24 33 -9 7 -16 20 -16 29 0 32 -42 81 -93 107 -28 15 -56 34 -60 41 -4 8 -21 14 -37 14 -22 0 -33 7 -44 28 -14 24 -15 -91 -16 -1065 l0 -1093 1800 0 1800 0 0 1800 0 1800 -58 0 c-48 0 -62 -4 -80 -23z m-1857 -615 c16 -8 0 -10 -66 -5 -175 12 -304 -43 -329 -140 -6 -23 -22 -71 -36 -107 -13 -36 -24 -76 -24 -90 0 -16 -3 -21 -10 -14 -9 9 18 151 48 254 9 30 87 84 151 105 54 17 234 15 266 -3z m1562 -79 c-4 -3 -10 -3 -14 0 -3 4 0 7 7 7 7 0 10 -3 7 -7z m-1067 -313 c0 -5 -2 -10 -4 -10 -3 0 -8 5 -11 10 -3 6 -1 10 4 10 6 0 11 -4 11 -10z m34 -36 c5 -14 4 -15 -9 -4 -17 14 -19 20 -6 20 5 0 12 -7 15 -16z m653 -31 c-4 -3 -7 0 -7 7 0 7 3 10 7 7 3 -4 3 -10 0 -14z m-947 -248 c7 -8 11 -15 9 -16 -2 0 -78 -3 -169 -5 -98 -3 -185 -10 -215 -18 -27 -8 -72 -18 -100 -22 -27 -3 -65 -13 -84 -20 -47 -20 -75 -17 -97 8 -19 21 -19 21 6 14 57 -17 81 -18 93 -4 15 18 214 58 322 64 44 3 81 7 84 10 2 2 35 4 71 4 48 0 71 -4 80 -15z m570 -69 c0 -3 -4 -8 -10 -11 -5 -3 -10 -1 -10 4 0 6 5 11 10 11 6 0 10 -2 10 -4z m-645 -218 c28 -33 41 -102 26 -140 -18 -47 -32 -33 -25 25 3 28 1 64 -5 79 -12 32 -49 45 -81 28 -17 -9 -26 -8 -46 5 -38 25 -29 32 42 31 59 -1 68 -4 89 -28z m704 -237 c12 -43 6 -71 -16 -71 -11 0 -13 7 -8 29 5 22 1 38 -15 60 -13 16 -19 34 -15 41 11 18 40 -14 54 -59z m87 -146 c3 -18 4 -43 2 -56 l-3 -24 -23 23 c-19 19 -22 31 -18 60 3 20 6 44 6 52 1 25 29 -18 36 -55z"/>
 <path d="M3093 3583 c4 -3 10 -3 14 0 3 4 0 7 -7 7 -7 0 -10 -3 -7 -7z"/>
 <path d="M3238 3573 c6 -2 18 -2 25 0 6 3 1 5 -13 5 -14 0 -19 -2 -12 -5z"/>
 <path d="M2380 3560 c0 -7 3 -10 7 -7 3 4 3 10 0 14 -4 3 -7 0 -7 -7z"/>
 <path d="M3043 3563 c4 -3 10 -3 14 0 3 4 0 7 -7 7 -7 0 -10 -3 -7 -7z"/>
 <path d="M3070 3561 c0 -6 5 -13 10 -16 6 -3 10 1 10 9 0 9 -4 16 -10 16 -5 0 -10 -4 -10 -9z"/>
 <path d="M3154 3548 c-4 -7 -3 -8 4 -4 7 4 12 9 12 12 0 8 -9 4 -16 -8z"/>
 <path d="M3420 3550 c0 -7 3 -10 7 -7 3 4 3 10 0 14 -4 3 -7 0 -7 -7z"/>
 <path d="M2990 3542 c0 -4 16 -8 35 -8 19 0 35 3 35 6 0 3 -16 7 -35 8 -19 2 -35 -1 -35 -6z"/>
 <path d="M3215 3530 c3 -5 8 -10 11 -10 3 0 2 5 -1 10 -3 6 -8 10 -11 10 -3 0 -2 -4 1 -10z"/>
 <path d="M3383 3533 c4 -3 10 -3 14 0 3 4 0 7 -7 7 -7 0 -10 -3 -7 -7z"/>
 <path d="M3293 3493 c4 -3 10 -3 14 0 3 4 0 7 -7 7 -7 0 -10 -3 -7 -7z"/>
 <path d="M2300 3480 c0 -7 3 -10 7 -7 3 4 3 10 0 14 -4 3 -7 0 -7 -7z"/>
 <path d="M2978 3483 c7 -3 16 -2 19 1 4 3 -2 6 -13 5 -11 0 -14 -3 -6 -6z"/>
 <path d="M3058 3463 c7 -3 16 -2 19 1 4 3 -2 6 -13 5 -11 0 -14 -3 -6 -6z"/>
 <path d="M1733 3433 c4 -3 10 -3 14 0 3 4 0 7 -7 7 -7 0 -10 -3 -7 -7z"/>
 <path d="M2380 3430 c0 -7 3 -10 7 -7 3 4 3 10 0 14 -4 3 -7 0 -7 -7z"/>
 <path d="M1840 3420 c0 -7 3 -10 7 -7 3 4 3 10 0 14 -4 3 -7 0 -7 -7z"/>
 <path d="M2350 3420 c0 -5 5 -10 11 -10 5 0 7 5 4 10 -3 6 -8 10 -11 10 -2 0 -4 -4 -4 -10z"/>
 <path d="M2697 3419 c7 -7 15 -10 18 -7 3 3 -2 9 -12 12 -14 6 -15 5 -6 -5z"/>
 <path d="M3375 3420 c-3 -5 -1 -10 4 -10 6 0 11 5 11 10 0 6 -2 10 -4 10 -3 0 -8 -4 -11 -10z"/>
 <path d="M1980 3410 c0 -7 3 -10 7 -7 3 4 3 10 0 14 -4 3 -7 0 -7 -7z"/>
 <path d="M2266 3407 c3 -10 9 -15 12 -12 3 3 0 11 -7 18 -10 9 -11 8 -5 -6z"/>
 <path d="M2433 3413 c4 -3 10 -3 14 0 3 4 0 7 -7 7 -7 0 -10 -3 -7 -7z"/>
 <path d="M3410 3410 c0 -7 3 -10 7 -7 3 4 3 10 0 14 -4 3 -7 0 -7 -7z"/>
 <path d="M1856 3395 c-3 -8 -1 -15 4 -15 6 0 10 7 10 15 0 8 -2 15 -4 15 -2 0 -6 -7 -10 -15z"/>
 <path d="M2730 3406 c0 -2 7 -7 16 -10 8 -3 12 -2 9 4 -6 10 -25 14 -25 6z"/>
 <path d="M2340 3390 c0 -7 3 -10 7 -7 3 4 3 10 0 14 -4 3 -7 0 -7 -7z"/>
 <path d="M2500 3391 c0 -6 4 -13 10 -16 6 -3 7 1 4 9 -7 18 -14 21 -14 7z"/>
 <path d="M3375 3390 c-19 -8 -19 -9 3 -9 12 -1 22 4 22 9 0 6 -1 10 -2 9 -2 0 -12 -4 -23 -9z"/>
 <path d="M1964 3378 c6 -20 -10 -25 -17 -5 -4 9 -6 9 -6 0 -1 -16 19 -27 29 -17 5 5 5 16 -1 24 -9 13 -10 12 -5 -2z"/>
 <path d="M2450 3380 c0 -7 3 -10 7 -7 3 4 3 10 0 14 -4 3 -7 0 -7 -7z"/>
 <path d="M2360 3366 c0 -3 9 -10 20 -16 11 -6 20 -8 20 -6 0 3 -9 10 -20 16 -11 6 -20 8 -20 6z"/>
 <path d="M2526 3347 c3 -10 9 -15 12 -12 3 3 0 11 -7 18 -10 9 -11 8 -5 -6z"/>
 <path d="M3208 3343 c7 -3 16 -2 19 1 4 3 -2 6 -13 5 -11 0 -14 -3 -6 -6z"/>
 <path d="M3173 3333 c4 -3 10 -3 14 0 3 4 0 7 -7 7 -7 0 -10 -3 -7 -7z"/>
 <path d="M3389 3323 c-13 -16 -12 -17 4 -4 16 13 21 21 13 21 -2 0 -10 -8 -17 -17z"/>
 <path d="M3133 3323 c4 -3 10 -3 14 0 3 4 0 7 -7 7 -7 0 -10 -3 -7 -7z"/>
 <path d="M2553 3313 c4 -3 10 -3 14 0 3 4 0 7 -7 7 -7 0 -10 -3 -7 -7z"/>
 <path d="M3160 3310 c-9 -6 -10 -10 -3 -10 6 0 15 5 18 10 8 12 4 12 -15 0z"/>
 <path d="M2480 3299 c0 -4 7 -22 15 -40 8 -19 14 -27 14 -19 0 14 -28 72 -29 59z"/>
 <path d="M3313 3283 c4 -3 10 -3 14 0 3 4 0 7 -7 7 -7 0 -10 -3 -7 -7z"/>
 <path d="M1404 3254 c9 -8 16 -20 16 -26 0 -6 3 -9 6 -6 8 9 -14 48 -27 48 -6 0 -3 -7 5 -16z"/>
 <path d="M3155 3260 c3 -5 8 -10 11 -10 3 0 2 5 -1 10 -3 6 -8 10 -11 10 -3 0 -2 -4 1 -10z"/>
 <path d="M3303 3263 c4 -3 10 -3 14 0 3 4 0 7 -7 7 -7 0 -10 -3 -7 -7z"/>
 <path d="M3114 3248 c-4 -7 -3 -8 4 -4 12 7 16 16 8 16 -3 0 -8 -5 -12 -12z"/>
 <path d="M3193 3245 c0 -8 4 -12 9 -9 5 3 6 10 3 15 -9 13 -12 11 -12 -6z"/>
 <path d="M3309 3223 c-13 -16 -12 -17 4 -4 9 7 17 15 17 17 0 8 -8 3 -21 -13z"/>
 <path d="M2510 3211 c0 -6 4 -13 10 -16 6 -3 7 1 4 9 -7 18 -14 21 -14 7z"/>
 <path d="M1460 3200 c0 -7 3 -10 7 -7 3 4 3 10 0 14 -4 3 -7 0 -7 -7z"/>
 <path d="M2550 3200 c0 -7 3 -10 7 -7 3 4 3 10 0 14 -4 3 -7 0 -7 -7z"/>
 <path d="M3186 3195 c25 -19 40 -19 20 0 -8 8 -20 15 -27 15 -7 0 -4 -6 7 -15z"/>
 <path d="M3346 3195 c-9 -26 -7 -32 5 -12 6 10 9 21 6 23 -2 3 -7 -2 -11 -11z"/>
 <path d="M1480 3191 c0 -6 4 -13 10 -16 6 -3 7 1 4 9 -7 18 -14 21 -14 7z"/>
 <path d="M3256 3192 c-2 -4 4 -8 14 -8 10 0 16 4 14 8 -3 4 -9 8 -14 8 -5 0 -11 -4 -14 -8z"/>
 <path d="M3133 3173 c4 -3 10 -3 14 0 3 4 0 7 -7 7 -7 0 -10 -3 -7 -7z"/>
 <path d="M1230 3161 c0 -7 -4 -9 -10 -6 -5 3 -10 1 -10 -4 0 -6 4 -11 9 -11 13 0 25 20 17 27 -3 4 -6 1 -6 -6z"/>
 <path d="M2493 3163 c4 -3 10 -3 14 0 3 4 0 7 -7 7 -7 0 -10 -3 -7 -7z"/>
 <path d="M3329 3148 c14 -19 32 -15 30 5 0 8 -2 8 -6 -1 -4 -10 -8 -10 -21 0 -15 12 -16 11 -3 -4z"/>
 <path d="M3293 3133 c4 -3 10 -3 14 0 3 4 0 7 -7 7 -7 0 -10 -3 -7 -7z"/>
 <path d="M1200 3119 c0 -5 5 -7 10 -4 6 3 10 8 10 11 0 2 -4 4 -10 4 -5 0 -10 -5 -10 -11z"/>
 <path d="M1023 3093 c4 -3 10 -3 14 0 3 4 0 7 -7 7 -7 0 -10 -3 -7 -7z"/>
 <path d="M3293 3093 c4 -3 10 -3 14 0 3 4 0 7 -7 7 -7 0 -10 -3 -7 -7z"/>
 <path d="M1171 3054 c0 -11 3 -14 6 -6 3 7 2 16 -1 19 -3 4 -6 -2 -5 -13z"/>
 <path d="M2950 3060 c0 -7 3 -10 7 -7 3 4 3 10 0 14 -4 3 -7 0 -7 -7z"/>
 <path d="M2904 3048 c-4 -7 -3 -8 4 -4 7 4 12 9 12 12 0 8 -9 4 -16 -8z"/>
 <path d="M1143 3028 c-20 -26 -26 -41 -15 -34 7 4 12 2 12 -3 0 -21 17 -11 29 17 10 25 10 26 -4 8 -8 -11 -18 -17 -21 -13 -4 4 -1 13 6 22 7 8 10 15 7 15 -2 0 -9 -6 -14 -12z"/>
 <path d="M3083 3033 c4 -3 10 -3 14 0 3 4 0 7 -7 7 -7 0 -10 -3 -7 -7z"/>
 <path d="M3250 3030 c0 -7 3 -10 7 -7 3 4 3 10 0 14 -4 3 -7 0 -7 -7z"/>
 <path d="M3128 3023 c7 -3 16 -2 19 1 4 3 -2 6 -13 5 -11 0 -14 -3 -6 -6z"/>
 <path d="M3053 3013 c4 -3 10 -3 14 0 3 4 0 7 -7 7 -7 0 -10 -3 -7 -7z"/>
 <path d="M3093 3003 c4 -3 10 -3 14 0 3 4 0 7 -7 7 -7 0 -10 -3 -7 -7z"/>
 <path d="M3133 3003 c9 -2 23 -2 30 0 6 3 -1 5 -18 5 -16 0 -22 -2 -12 -5z"/>
 <path d="M3213 3003 c4 -3 10 -3 14 0 3 4 0 7 -7 7 -7 0 -10 -3 -7 -7z"/>
 <path d="M1125 2949 c-4 -6 -5 -12 -2 -15 2 -3 7 2 10 11 7 17 1 20 -8 4z"/>
 <path d="M3203 2933 c4 -3 10 -3 14 0 3 4 0 7 -7 7 -7 0 -10 -3 -7 -7z"/>
 <path d="M3064 2898 c-4 -7 -3 -8 4 -4 12 7 16 16 8 16 -3 0 -8 -5 -12 -12z"/>
 <path d="M3030 2860 c0 -7 3 -10 7 -7 3 4 3 10 0 14 -4 3 -7 0 -7 -7z"/>
 <path d="M1763 2828 c1 -15 6 -23 11 -18 4 4 4 16 -2 26 -9 16 -10 14 -9 -8z"/>
 <path d="M2870 2830 c0 -7 3 -10 7 -7 3 4 3 10 0 14 -4 3 -7 0 -7 -7z"/>
 <path d="M1800 2820 c0 -7 3 -10 7 -7 3 4 3 10 0 14 -4 3 -7 0 -7 -7z"/>
 <path d="M2963 2823 c4 -3 10 -3 14 0 3 4 0 7 -7 7 -7 0 -10 -3 -7 -7z"/>
 <path d="M2993 2795 c0 -8 4 -12 9 -9 5 3 6 10 3 15 -9 13 -12 11 -12 -6z"/>
 <path d="M2930 2790 c0 -7 3 -10 7 -7 3 4 3 10 0 14 -4 3 -7 0 -7 -7z"/>
 <path d="M3020 2770 c0 -7 3 -10 7 -7 3 4 3 10 0 14 -4 3 -7 0 -7 -7z"/>
 <path d="M0 2760 c0 -7 3 -10 7 -7 3 4 3 10 0 14 -4 3 -7 0 -7 -7z"/>
 <path d="M370 2760 c0 -7 3 -10 7 -7 3 4 3 10 0 14 -4 3 -7 0 -7 -7z"/>
 <path d="M1840 2750 c0 -7 3 -10 7 -7 3 4 3 10 0 14 -4 3 -7 0 -7 -7z"/>
 <path d="M2803 2753 c4 -3 10 -3 14 0 3 4 0 7 -7 7 -7 0 -10 -3 -7 -7z"/>
 <path d="M2840 2731 c0 -5 7 -12 16 -15 14 -5 15 -4 4 9 -14 17 -20 19 -20 6z"/>
 <path d="M2876 2727 c3 -10 9 -15 12 -12 3 3 0 11 -7 18 -10 9 -11 8 -5 -6z"/>
 <path d="M523 2713 c4 -3 10 -3 14 0 3 4 0 7 -7 7 -7 0 -10 -3 -7 -7z"/>
 <path d="M568 2713 c6 -2 18 -2 25 0 6 3 1 5 -13 5 -14 0 -19 -2 -12 -5z"/>
 <path d="M2923 2713 c4 -3 10 -3 14 0 3 4 0 7 -7 7 -7 0 -10 -3 -7 -7z"/>
 <path d="M655 2700 c3 -5 8 -10 11 -10 3 0 2 5 -1 10 -3 6 -8 10 -11 10 -3 0 -2 -4 1 -10z"/>
 <path d="M438 2693 c7 -3 16 -2 19 1 4 3 -2 6 -13 5 -11 0 -14 -3 -6 -6z"/>
 <path d="M1933 2693 c4 -3 10 -3 14 0 3 4 0 7 -7 7 -7 0 -10 -3 -7 -7z"/>
 <path d="M2830 2690 c0 -7 3 -10 7 -7 3 4 3 10 0 14 -4 3 -7 0 -7 -7z"/>
 <path d="M2863 2693 c4 -3 10 -3 14 0 3 4 0 7 -7 7 -7 0 -10 -3 -7 -7z"/>
 <path d="M563 2683 c4 -3 10 -3 14 0 3 4 0 7 -7 7 -7 0 -10 -3 -7 -7z"/>
 <path d="M480 2666 c14 -8 27 -12 29 -10 6 6 -1 11 -29 18 l-25 7 25 -15z"/>
 <path d="M1920 2670 c0 -5 5 -10 11 -10 5 0 7 5 4 10 -3 6 -8 10 -11 10 -2 0 -4 -4 -4 -10z"/>
 <path d="M1960 2670 c0 -5 5 -10 11 -10 5 0 7 5 4 10 -3 6 -8 10 -11 10 -2 0 -4 -4 -4 -10z"/>
 <path d="M380 2660 c0 -7 3 -10 7 -7 3 4 3 10 0 14 -4 3 -7 0 -7 -7z"/>
 <path d="M360 2650 c0 -7 3 -10 7 -7 3 4 3 10 0 14 -4 3 -7 0 -7 -7z"/>
 <path d="M830 2650 c0 -7 3 -10 7 -7 3 4 3 10 0 14 -4 3 -7 0 -7 -7z"/>
 <path d="M2830 2650 c-12 -7 -10 -9 7 -7 12 0 19 5 17 9 -6 10 -6 10 -24 -2z"/>
 <path d="M2170 2620 c0 -7 3 -10 7 -7 3 4 3 10 0 14 -4 3 -7 0 -7 -7z"/>
 <path d="M2250 2550 c0 -7 3 -10 7 -7 3 4 3 10 0 14 -4 3 -7 0 -7 -7z"/>
 <path d="M2742 2520 c0 -14 2 -19 5 -12 2 6 2 18 0 25 -3 6 -5 1 -5 -13z"/>
 <path d="M2254 2518 c-4 -7 -3 -8 4 -4 12 7 16 16 8 16 -3 0 -8 -5 -12 -12z"/>
 <path d="M950 2510 c0 -7 3 -10 7 -7 3 4 3 10 0 14 -4 3 -7 0 -7 -7z"/>
 <path d="M892 2445 c6 -14 13 -24 14 -22 6 6 -9 47 -17 47 -5 0 -3 -11 3 -25z"/>
 <path d="M955 2460 c3 -5 8 -10 11 -10 3 0 2 5 -1 10 -3 6 -8 10 -11 10 -3 0 -2 -4 1 -10z"/>
 <path d="M2570 2440 c0 -7 3 -10 7 -7 3 4 3 10 0 14 -4 3 -7 0 -7 -7z"/>
 <path d="M2330 2410 c0 -7 3 -10 7 -7 3 4 3 10 0 14 -4 3 -7 0 -7 -7z"/>
 <path d="M2540 2411 c0 -6 4 -13 10 -16 6 -3 7 1 4 9 -7 18 -14 21 -14 7z"/>
 <path d="M890 2406 c0 -2 8 -10 18 -17 15 -13 16 -12 3 4 -13 16 -21 21 -21 13z"/>
 <path d="M2486 2348 c-18 -36 -19 -41 -7 -34 9 6 33 66 26 66 -2 0 -11 -14 -19 -32z"/>
 <path d="M2338 2343 c5 -21 7 -23 10 -9 2 10 0 22 -6 28 -6 6 -7 0 -4 -19z"/>
 <path d="M2517 2353 c-4 -3 -7 -11 -7 -17 0 -6 5 -5 12 2 6 6 9 14 7 17 -3 3 -9 2 -12 -2z"/>
 <path d="M884 2328 c-4 -7 -3 -8 4 -4 7 4 12 9 12 12 0 8 -9 4 -16 -8z"/>
 <path d="M2410 2300 c0 -7 3 -10 7 -7 3 4 3 10 0 14 -4 3 -7 0 -7 -7z"/>
 <path d="M145 2150 c3 -5 8 -10 11 -10 3 0 2 5 -1 10 -3 6 -8 10 -11 10 -3 0 -2 -4 1 -10z"/>
 <path d="M805 2149 c-4 -6 -5 -12 -2 -15 2 -3 7 2 10 11 7 17 1 20 -8 4z"/>
 <path d="M820 2120 c0 -7 3 -10 7 -7 3 4 3 10 0 14 -4 3 -7 0 -7 -7z"/>
 <path d="M230 2110 c0 -7 3 -10 7 -7 3 4 3 10 0 14 -4 3 -7 0 -7 -7z"/>
 <path d="M175 2100 c3 -5 8 -10 11 -10 2 0 4 5 4 10 0 6 -5 10 -11 10 -5 0 -7 -4 -4 -10z"/>
 <path d="M205 2080 c3 -5 8 -10 11 -10 2 0 4 5 4 10 0 6 -5 10 -11 10 -5 0 -7 -4 -4 -10z"/>
 <path d="M363 2073 c4 -3 10 -3 14 0 3 4 0 7 -7 7 -7 0 -10 -3 -7 -7z"/>
 <path d="M813 2063 c4 -3 10 -3 14 0 3 4 0 7 -7 7 -7 0 -10 -3 -7 -7z"/>
 <path d="M775 2040 c-3 -5 -1 -10 4 -10 6 0 11 5 11 10 0 6 -2 10 -4 10 -3 0 -8 -4 -11 -10z"/>
 <path d="M353 2023 c4 -3 10 -3 14 0 3 4 0 7 -7 7 -7 0 -10 -3 -7 -7z"/>
 <path d="M775 1970 c3 -5 8 -10 11 -10 2 0 4 5 4 10 0 6 -5 10 -11 10 -5 0 -7 -4 -4 -10z"/>
 <path d="M730 1960 c0 -7 3 -10 7 -7 3 4 3 10 0 14 -4 3 -7 0 -7 -7z"/>
 <path d="M1998 1725 c-98 -16 -134 -29 -191 -65 -63 -40 -89 -82 -75 -124 15 -44 29 -56 24 -21 -2 17 -1 24 1 16 4 -12 6 -12 14 0 7 11 11 12 17 1 5 -7 18 -14 30 -15 12 0 19 -3 17 -6 -3 -2 3 -10 13 -17 15 -12 15 -15 2 -23 -24 -16 3 -34 52 -35 42 -1 42 -1 43 36 3 71 55 96 108 52 18 -15 33 -22 35 -15 2 6 7 9 12 6 4 -3 13 2 20 10 15 18 46 20 57 3 4 -7 16 -19 25 -26 22 -17 51 0 80 46 17 28 18 37 8 62 -13 32 -86 90 -135 107 -53 20 -78 21 -157 8z m229 -212 c-4 -3 -10 -3 -14 0 -3 4 0 7 7 7 7 0 10 -3 7 -7z"/>
 <path d="M1123 1611 c-61 -18 -129 -60 -140 -87 -7 -18 27 -176 41 -192 13 -13 138 -19 191 -8 71 13 195 55 229 75 42 27 53 58 37 111 -16 54 -55 98 -99 110 -56 15 -189 11 -259 -9z m187 -166 c16 -8 34 -24 40 -35 10 -19 7 -20 -55 -20 -58 0 -65 2 -65 19 0 11 10 27 22 35 27 19 23 19 58 1z m-193 -56 c34 2 52 -14 34 -32 -14 -14 -83 6 -102 30 -13 15 -11 16 11 9 14 -4 39 -7 57 -7z"/>
 <path d="M2303 1503 c-21 -20 -61 -53 -90 -73 -29 -21 -50 -40 -47 -42 2 -3 -4 -8 -16 -11 -11 -3 -20 -2 -20 2 0 4 -10 7 -22 8 -21 2 -21 1 -5 -9 18 -9 17 -11 -5 -26 -30 -22 -197 -21 -213 1 -5 8 -28 20 -50 27 -22 7 -45 17 -52 22 -7 5 -18 6 -24 2 -7 -4 -9 -3 -6 3 9 15 -46 36 -91 36 -62 -1 -116 -21 -197 -74 -54 -35 -74 -54 -67 -61 7 -7 26 -2 61 18 49 26 71 28 56 4 -10 -16 -95 -51 -106 -44 -5 3 -23 -4 -39 -16 -38 -27 -87 -35 -125 -19 l-30 12 42 7 c75 11 59 20 -28 15 -46 -3 -116 0 -154 6 -120 17 -120 17 -123 -14 -2 -15 4 -62 14 -105 31 -141 29 -190 -5 -148 -8 9 -10 28 -6 49 5 28 3 39 -14 56 -15 15 -19 29 -16 56 3 19 1 35 -4 35 -5 0 -9 16 -8 36 1 26 -5 42 -21 54 -12 10 -22 23 -22 29 0 6 -4 11 -9 11 -11 0 -17 -17 -26 -71 -8 -43 12 -69 52 -69 24 0 25 -2 18 -32 -4 -18 -7 -44 -7 -58 1 -14 2 -54 3 -90 1 -36 5 -70 11 -77 6 -7 5 -14 -2 -18 -18 -11 -11 -23 13 -19 12 2 16 2 10 -2 -7 -3 -13 -21 -13 -40 0 -21 4 -33 10 -29 6 4 8 10 5 15 -3 5 -1 11 5 15 5 3 10 -1 10 -9 0 -20 20 -32 29 -17 11 17 46 -36 97 -147 25 -53 55 -108 67 -121 32 -35 96 -73 109 -65 7 5 8 3 3 -6 -13 -20 95 -7 142 18 23 11 44 18 47 15 3 -4 6 -1 6 6 0 9 10 12 29 9 17 -2 28 -1 26 3 -6 9 20 30 28 22 4 -3 7 2 7 13 0 16 2 17 10 4 5 -8 7 -24 4 -34 -5 -16 -4 -17 9 -5 11 11 12 17 4 28 -33 40 104 70 169 37 27 -15 58 -11 34 4 -6 4 15 6 47 4 55 -3 152 11 108 16 -12 1 -7 5 15 10 20 5 36 5 38 0 2 -5 16 -7 32 -4 18 4 37 0 50 -9 12 -9 29 -13 38 -9 13 5 13 7 -4 13 -10 5 5 6 34 2 35 -4 52 -2 52 6 0 6 9 11 19 11 11 0 23 5 26 10 3 6 1 10 -6 10 -7 0 -9 3 -6 6 4 4 13 2 20 -5 11 -9 17 -7 28 6 12 15 12 16 -3 10 -24 -9 -24 -7 23 38 32 31 40 35 35 18 -4 -12 -3 -24 2 -27 5 -3 8 12 8 34 -1 21 2 36 7 33 4 -2 7 13 7 34 0 25 3 33 9 24 6 -9 9 -5 9 14 0 20 -3 23 -10 14 -5 -9 -6 1 -2 26 3 22 10 44 15 49 5 6 9 25 9 44 0 18 4 31 9 28 4 -3 7 20 5 52 -2 44 -1 49 5 22 5 -26 7 -15 7 45 1 56 6 89 17 110 17 29 17 29 23 8 4 -13 10 -20 15 -17 5 3 12 -2 15 -11 5 -12 9 -13 21 -4 12 11 12 14 -1 21 -17 10 -22 38 -7 38 17 0 22 39 9 62 -7 13 -11 27 -10 32 2 5 -6 6 -18 3 -12 -3 -18 -1 -14 5 3 5 -1 17 -10 26 -9 9 -34 38 -55 64 l-40 48 -38 -37z m167 -153 c0 -11 -2 -20 -4 -20 -2 0 -6 9 -9 20 -3 11 -1 20 4 20 5 0 9 -9 9 -20z m-33 -27 c-3 -10 -5 -4 -5 12 0 17 2 24 5 18 2 -7 2 -21 0 -30z m50 5 c-3 -8 -6 -5 -6 6 -1 11 2 17 5 13 3 -3 4 -12 1 -19z m-1354 -73 c38 -2 34 -19 -6 -23 -23 -2 -41 4 -58 18 l-24 21 30 -7 c17 -4 42 -8 58 -9z m-162 -388 c-10 -9 -11 -8 -5 6 3 10 9 15 12 12 3 -3 0 -11 -7 -18z"/>
 <path d="M1720 1490 c0 -5 5 -10 11 -10 5 0 7 5 4 10 -3 6 -8 10 -11 10 -2 0 -4 -4 -4 -10z"/>
 <path d="M2180 1491 c0 -6 5 -13 10 -16 6 -3 10 1 10 9 0 9 -4 16 -10 16 -5 0 -10 -4 -10 -9z"/>
 <path d="M1973 1483 c4 -3 10 -3 14 0 3 4 0 7 -7 7 -7 0 -10 -3 -7 -7z"/>
 <path d="M2160 1480 c0 -7 3 -10 7 -7 3 4 3 10 0 14 -4 3 -7 0 -7 -7z"/>
 <path d="M933 1453 c4 -3 10 -3 14 0 3 4 0 7 -7 7 -7 0 -10 -3 -7 -7z"/>
 <path d="M1963 1433 c4 -3 10 -3 14 0 3 4 0 7 -7 7 -7 0 -10 -3 -7 -7z"/>
 <path d="M1923 1373 c4 -3 10 -3 14 0 3 4 0 7 -7 7 -7 0 -10 -3 -7 -7z"/>
 <path d="M1335 1300 c-13 -6 -15 -9 -5 -9 8 0 22 4 30 9 18 12 2 12 -25 0z"/>
 <path d="M2475 1200 c3 -5 8 -10 11 -10 3 0 2 5 -1 10 -3 6 -8 10 -11 10 -3 0 -2 -4 1 -10z"/>
 <path d="M2490 1169 c0 -5 5 -7 10 -4 6 3 10 8 10 11 0 2 -4 4 -10 4 -5 0 -10 -5 -10 -11z"/>
 <path d="M2500 1140 c0 -7 3 -10 7 -7 3 4 3 10 0 14 -4 3 -7 0 -7 -7z"/>
 <path d="M2503 1083 c4 -3 10 -3 14 0 3 4 0 7 -7 7 -7 0 -10 -3 -7 -7z"/>
 <path d="M2508 1053 c7 -3 16 -2 19 1 4 3 -2 6 -13 5 -11 0 -14 -3 -6 -6z"/>
 <path d="M2455 1030 c3 -5 8 -10 11 -10 3 0 2 5 -1 10 -3 6 -8 10 -11 10 -3 0 -2 -4 1 -10z"/>
 <path d="M2430 1020 c0 -7 3 -10 7 -7 3 4 3 10 0 14 -4 3 -7 0 -7 -7z"/>
 <path d="M2420 991 c0 -5 -7 -16 -14 -24 -13 -13 -12 -14 11 -14 14 0 20 3 14 7 -7 3 -9 14 -5 23 3 9 3 17 0 17 -3 0 -6 -4 -6 -9z"/>
 <path d="M2420 910 c0 -7 3 -10 7 -7 3 4 3 10 0 14 -4 3 -7 0 -7 -7z"/>
 <path d="M2393 873 c4 -3 10 -3 14 0 3 4 0 7 -7 7 -7 0 -10 -3 -7 -7z"/>
 <path d="M2371 814 c0 -11 3 -14 6 -6 3 7 2 16 -1 19 -3 4 -6 -2 -5 -13z"/>
 <path d="M953 763 c4 -3 10 -3 14 0 3 4 0 7 -7 7 -7 0 -10 -3 -7 -7z"/>
 <path d="M1003 743 c4 -3 10 -3 14 0 3 4 0 7 -7 7 -7 0 -10 -3 -7 -7z"/>
 <path d="M2283 715 c0 -8 4 -12 9 -9 4 3 8 9 8 15 0 5 -4 9 -8 9 -5 0 -9 -7 -9 -15z"/>
 <path d="M2234 648 c-4 -7 -3 -8 4 -4 7 4 12 9 12 12 0 8 -9 4 -16 -8z"/>
 <path d="M1923 623 c4 -3 10 -3 14 0 3 4 0 7 -7 7 -7 0 -10 -3 -7 -7z"/>
 <path d="M1950 600 c0 -7 3 -10 7 -7 3 4 3 10 0 14 -4 3 -7 0 -7 -7z"/>
 <path d="M1610 579 c0 -5 5 -7 10 -4 6 3 10 8 10 11 0 2 -4 4 -10 4 -5 0 -10 -5 -10 -11z"/>
 <path d="M1645 580 c3 -5 8 -10 11 -10 2 0 4 5 4 10 0 6 -5 10 -11 10 -5 0 -7 -4 -4 -10z"/>
 <path d="M1685 580 c-3 -6 1 -7 9 -4 18 7 21 14 7 14 -6 0 -13 -4 -16 -10z"/>
 <path d="M1818 583 c6 -2 18 -2 25 0 6 3 1 5 -13 5 -14 0 -19 -2 -12 -5z"/>
 <path d="M1980 580 c0 -7 3 -10 7 -7 3 4 3 10 0 14 -4 3 -7 0 -7 -7z"/>
 <path d="M1775 550 c3 -5 8 -10 11 -10 3 0 2 5 -1 10 -3 6 -8 10 -11 10 -3 0 -2 -4 1 -10z"/>
 <path d="M1470 540 c0 -7 3 -10 7 -7 3 4 3 10 0 14 -4 3 -7 0 -7 -7z"/>
 <path d="M1508 533 c7 -3 16 -2 19 1 4 3 -2 6 -13 5 -11 0 -14 -3 -6 -6z"/>
 <path d="M1400 500 c0 -5 4 -10 9 -10 6 0 13 5 16 10 3 6 -1 10 -9 10 -9 0 -16 -4 -16 -10z"/>
 <path d="M1317 483 c-10 -10 -8 -23 4 -23 5 0 8 4 5 9 -4 5 0 12 6 14 7 3 8 6 2 6 -6 1 -14 -2 -17 -6z"/>
 </g>
<g id="layer108" fill="#fefefe" stroke="none">
 <path d="M3504 3433 c-3 -10 -19 -47 -35 -83 -25 -57 -26 -66 -13 -73 10 -6 20 -5 27 2 6 6 17 11 24 11 9 0 8 -10 -7 -37 -26 -49 -25 -59 10 -129 32 -63 50 -139 50 -210 0 -34 -5 -47 -22 -58 -23 -15 -153 -51 -220 -61 -23 -4 -42 -14 -48 -25 -9 -16 -15 -18 -38 -9 -14 6 -35 19 -45 30 -21 23 -50 25 -67 5 -6 -8 -20 -43 -30 -77 -14 -44 -29 -71 -56 -95 -20 -19 -40 -34 -44 -34 -5 0 -19 -23 -31 -50 -13 -28 -38 -62 -57 -76 l-34 -26 2 33 c3 54 1 59 -23 59 -42 0 -61 -45 -38 -88 7 -13 1 -34 -22 -77 -34 -63 -48 -71 -57 -33 -3 13 -14 24 -23 26 -30 6 -156 -78 -210 -140 -43 -48 -57 -58 -84 -58 -38 0 -57 24 -67 83 -4 20 -11 37 -16 37 -4 0 -18 21 -31 47 -26 53 -109 143 -154 165 -16 9 -51 19 -78 22 -26 4 -59 14 -75 22 -15 7 -39 14 -55 14 -21 0 -43 16 -90 63 -34 35 -91 83 -127 107 -36 24 -68 49 -73 56 -10 18 -72 34 -132 34 l-50 1 29 16 c20 10 45 14 79 10 76 -7 104 8 116 62 10 50 6 68 -17 76 -22 6 -106 70 -227 173 -54 45 -103 81 -108 79 -6 -2 -15 -16 -20 -33 -6 -16 -18 -41 -29 -56 -33 -48 -138 -261 -138 -282 0 -11 -9 -69 -20 -130 -11 -61 -23 -128 -26 -149 -3 -23 -16 -50 -32 -66 -67 -66 -117 -155 -162 -286 -35 -101 -44 -188 -40 -390 2 -88 3 -180 2 -205 -1 -25 1 -64 4 -87 7 -57 28 -56 84 3 68 73 136 99 285 111 142 11 221 -21 265 -107 28 -55 53 -73 89 -65 45 10 58 28 66 87 3 29 11 65 17 80 10 27 39 44 56 34 5 -3 32 4 60 14 99 38 231 61 307 54 82 -8 104 -18 171 -76 74 -66 101 -80 134 -73 22 5 31 2 39 -14 6 -11 11 -27 11 -36 0 -9 11 -31 24 -48 23 -32 51 -136 60 -232 3 -27 10 -86 15 -130 6 -44 12 -161 15 -260 5 -173 4 -183 -21 -260 -20 -60 -37 -90 -70 -126 -48 -52 -49 -55 -38 -146 8 -66 6 -70 -24 -51 -26 16 -55 -7 -47 -36 7 -28 -11 -46 -46 -46 -48 0 -85 -29 -108 -84 l-21 -51 -38 41 c-37 41 -37 41 -131 47 -83 6 -98 5 -138 -14 -38 -19 -73 -57 -85 -94 -2 -6 -10 -5 -19 2 -8 7 -23 14 -34 16 -10 2 -33 11 -51 20 -18 9 -52 17 -76 17 -76 0 -111 18 -189 98 -37 37 -71 41 -108 12 -33 -26 -95 -26 -140 1 -47 28 -60 47 -60 85 0 51 -30 64 -112 49 -48 -10 -79 -1 -117 31 -39 33 -42 75 -6 98 17 11 25 26 25 44 0 37 -17 52 -57 52 -34 0 -57 25 -36 39 23 14 23 49 -1 103 -16 36 -21 59 -15 69 25 41 52 149 51 209 0 36 -1 85 -1 110 -1 36 -7 52 -29 75 -27 28 -29 38 -35 125 -4 72 -2 101 8 120 8 14 14 52 15 85 0 34 4 65 9 70 5 6 6 74 3 160 l-7 150 -75 6 c-41 3 -92 9 -112 13 -36 8 -37 7 -65 -43 -15 -28 -33 -51 -40 -51 -6 0 -21 12 -33 28 -50 65 -114 122 -135 122 -30 0 -41 -16 -49 -72 -8 -57 -31 -64 -40 -14 -4 19 -13 39 -21 46 -8 7 -15 18 -15 26 0 38 -35 83 -82 105 -28 13 -56 32 -63 42 -7 10 -19 18 -26 17 -32 -5 -47 1 -57 23 -8 16 -11 -276 -11 -1065 l-1 -1088 1800 0 1800 0 0 1627 0 1627 -31 32 c-28 29 -32 40 -33 95 -1 62 -19 92 -32 52z m-1926 -459 c76 -10 44 -20 -65 -20 -178 -1 -269 -42 -297 -132 -7 -26 -26 -78 -40 -116 -15 -38 -24 -78 -20 -88 3 -12 0 -18 -10 -18 -21 0 -20 18 5 125 37 157 39 163 78 188 37 24 95 49 145 64 28 9 122 7 204 -3z m266 -717 c6 -9 8 -18 5 -21 -3 -3 -79 -7 -170 -7 -125 -2 -179 -6 -229 -21 -36 -10 -78 -18 -93 -18 -16 0 -50 -9 -77 -21 -45 -19 -50 -20 -79 -5 -17 9 -31 23 -31 31 0 16 16 20 24 6 10 -15 70 -20 86 -6 25 22 215 56 380 70 177 14 170 14 184 -8z m-159 -260 c23 3 51 0 62 -6 59 -31 73 -191 16 -191 -12 0 -13 5 -7 23 15 45 10 106 -13 128 -19 20 -25 21 -52 10 -34 -14 -66 -8 -75 15 -8 22 3 39 17 25 6 -6 28 -8 52 -4z m775 -237 c24 -47 26 -83 5 -100 -12 -10 -16 -9 -21 4 -3 9 -3 23 0 32 3 9 -3 27 -14 41 -11 14 -20 34 -20 44 0 33 29 21 50 -21z m88 -137 c20 -50 25 -100 11 -108 -21 -13 -49 32 -49 79 0 62 20 76 38 29z"/>
 <path d="M1968 1714 c-86 -17 -131 -35 -160 -62 -16 -14 -28 -29 -28 -33 0 -3 23 -30 50 -58 29 -30 50 -61 50 -74 0 -12 4 -28 9 -35 12 -20 45 -10 49 13 11 77 22 84 162 96 87 7 97 6 123 -12 34 -24 54 -19 63 16 10 42 -3 71 -48 101 -98 66 -143 74 -270 48z"/>
 <path d="M1155 1616 c-66 -16 -136 -48 -155 -70 -8 -10 -13 -34 -13 -55 2 -37 27 -143 39 -162 11 -18 188 -5 279 21 92 26 142 49 169 79 38 42 -8 146 -80 181 -47 23 -158 26 -239 6z m174 -182 c17 -14 31 -29 31 -34 0 -12 -124 -17 -132 -5 -12 16 -10 23 12 45 27 27 52 25 89 -6z m-211 -44 c37 0 61 -18 45 -34 -20 -20 -123 12 -123 39 0 12 4 14 19 5 11 -5 37 -10 59 -10z"/>
 <path d="M2242 1440 c-54 -52 -91 -80 -106 -80 -12 0 -27 -5 -34 -12 -6 -6 -49 -14 -94 -16 -72 -4 -94 0 -163 23 -44 15 -95 41 -113 56 -36 32 -66 36 -142 18 -63 -14 -205 -108 -188 -124 5 -5 71 27 94 46 17 14 29 6 21 -15 -7 -18 -79 -56 -106 -56 -11 0 -35 -9 -53 -20 -48 -29 -146 -24 -134 6 4 11 -6 14 -42 14 -26 0 -64 3 -84 6 -25 4 -38 3 -38 -4 0 -10 52 -25 92 -26 35 -2 17 -21 -21 -24 -44 -3 -81 11 -81 31 0 8 -16 21 -36 30 -67 33 -76 -1 -39 -153 7 -30 15 -72 18 -92 5 -33 3 -38 -14 -38 -12 0 -24 11 -30 28 l-11 27 -10 -25 c-10 -26 -1 -54 26 -87 9 -10 53 -96 99 -192 71 -149 88 -177 122 -202 23 -16 54 -32 70 -34 17 -3 40 -8 53 -10 27 -6 93 21 157 65 62 43 176 70 291 70 51 0 122 7 157 15 37 8 102 14 153 13 81 -2 94 0 141 26 55 29 98 73 114 114 15 39 39 161 55 271 7 57 23 140 35 183 33 120 15 208 -47 236 -14 7 -26 12 -27 12 -1 0 -39 -36 -85 -80z"/>
 <path d="M844 1295 c-12 -52 -3 -75 30 -75 44 0 49 54 8 93 l-28 26 -10 -44z"/>
 <path d="M940 1125 c-6 -34 -6 -55 1 -55 13 0 16 14 8 40 -4 14 -8 21 -9 15z"/>
 </g>

</svg>