<?xml version="1.0" encoding="UTF-8" standalone="no"?><!DOCTYPE svg PUBLIC "-//W3C//DTD SVG 1.1//EN" "http://www.w3.org/Graphics/SVG/1.1/DTD/svg11.dtd"><svg width="100%" height="100%" viewBox="0 0 375 375" version="1.1" xmlns="http://www.w3.org/2000/svg" xmlns:xlink="http://www.w3.org/1999/xlink" xml:space="preserve" xmlns:serif="http://www.serif.com/" style="fill-rule:evenodd;clip-rule:evenodd;stroke-linejoin:round;stroke-miterlimit:1.41421;"><path d="M280.878,270.798l-1.451,-24.238c-0.848,3.461 -3.771,15.389 -5.35,21.842c1.799,0.79 6.801,2.396 6.801,2.396" style="fill:#808285;fill-rule:nonzero;"/><path d="M243.087,218.406c19.946,5.23 35.204,9.246 35.204,9.246l0.003,0.038l-2.924,-48.746l-30.813,35.074l-1.47,4.388Z" style="fill:#808285;fill-rule:nonzero;"/><path d="M284.854,336.99l-0.837,-13.966c-0.019,0.008 -13.503,5.451 -20.293,8.108c8.632,2.266 21.092,5.847 21.13,5.858" style="fill:#808285;fill-rule:nonzero;"/><path d="M239.624,320.209c17.687,2.19 32.438,-0.487 43.686,-8.931l-2.171,-36.188c-0.054,-0.01 -18.573,-3.632 -28.746,-6.982c-4.26,17.367 -8.506,34.728 -12.769,52.101" style="fill:#808285;fill-rule:nonzero;"/><path d="M235.277,317.471c7.963,-32.851 17.492,-65.207 23.627,-89.611c-3.867,-0.715 -10.733,-2.481 -17.541,-4.312l-28.667,85.493c8.382,4.396 16.652,7.498 22.581,8.43" style="fill:#808285;fill-rule:nonzero;"/><path d="M285.043,340.587c0,0 -37.174,-9.419 -76.442,-19.328l-8.304,24.757l-68.943,-23.111c-0.008,0.03 -0.019,0.065 -0.027,0.095l-0.125,-0.046l2.114,35.277l152.265,-9.131l-0.704,-11.711l0.166,3.198Z" style="fill:#808285;fill-rule:nonzero;"/><path d="M269.339,267.237c2.842,-11.575 5.675,-23.157 8.509,-34.731c-8.295,-2.326 -7.797,-2.995 -15.78,-3.867c-2.845,11.58 -5.678,23.157 -8.512,34.731c4.676,1.957 13.003,4.508 15.783,3.867" style="fill:#808285;fill-rule:nonzero;"/><path d="M271.642,57.719c-20.747,-5.73 -42.507,-12.259 -65.648,-16.878c-5.241,16.079 -10.506,34.739 -15.226,53.679l20.606,18.104c20.562,-18.701 45.262,-30.911 72.445,-37.359l-43.982,-63.382l-36.12,25.065c0.017,0.002 43.483,10.859 64.73,16.163l3.195,4.608Z" style="fill:#f47e20;fill-rule:nonzero;"/><path d="M277.938,171.103l48.859,-33.908l-36.915,-53.196c-27.809,4.1 -51.707,16.041 -71.441,34.834l59.497,52.27Z" style="fill:#f47e20;fill-rule:nonzero;"/><path d="M201.549,38.452l-41.678,28.922l27.835,24.459l13.843,-53.381Z" style="fill:#f47e20;fill-rule:nonzero;"/><path d="M117.346,113.626l59.535,19.959l10.827,-41.752l-27.838,-24.458l-25.214,-22.149l-100.678,114.591l52.441,46.067l30.927,-92.258Z" style="fill:#ec2627;fill-rule:nonzero;"/><path d="M181.598,135.166l7.575,2.541c6.694,-9.396 14.128,-17.739 22.2,-25.083l-20.605,-18.104c-3.416,13.694 -6.548,27.529 -9.17,40.646" style="fill:#ec2627;fill-rule:nonzero;"/><path d="M218.441,118.832c-6.918,6.589 -13.33,14.009 -19.209,22.247l62.732,21.03l-17.405,51.91l30.811,-35.073l5.007,-5.701l-2.44,-2.143l-59.496,-52.27Z" style="fill:#ec2627;fill-rule:nonzero;"/><path d="M176.88,133.585l-59.535,-19.959l-30.927,92.258l-30.724,91.654l72.378,24.266l-0.003,0l48.811,-188.219Z" style="fill:#ebb325;fill-rule:nonzero;"/><path d="M147,311.461c2.842,2.396 6.417,5.849 9.042,8.352c-0.859,-0.5 -5.138,-4.144 -10.012,-7.755c-3.348,-2.483 -6.097,-5.618 -9.77,-7.143c-1.373,4.959 -3.636,13.297 -4.905,17.989l68.941,23.114l8.303,-24.76c-23.825,-6.013 -48.422,-12.207 -65.96,-16.587c-1.573,1.413 1.391,4.284 4.361,6.79" style="fill:#ebb325;fill-rule:nonzero;"/><path d="M164.607,270.267c-5.184,6.592 -17.674,19.842 -25.607,30.297c20.785,3.981 44.737,13.197 63.536,13.903c-18.505,-10.737 -30.729,-27.064 -37.929,-44.2" style="fill:#ebb325;fill-rule:nonzero;"/><path d="M163.686,268.126c-3.619,-10.328 -6.303,-20.342 -8.83,-32.286c-4.423,16.571 -11.895,38.97 -16.576,60.716c9.735,-6.39 17.698,-19.717 25.406,-28.43" style="fill:#ebb325;fill-rule:nonzero;"/><path d="M172.322,260.203c3.733,-2.736 6.466,-6.26 9.971,-9.276c3.657,-3.144 6.659,-4.967 10.846,-7.382c-21.005,13.52 -21.643,28.27 -7.672,44.977c6.49,7.762 16.943,15.12 27.229,20.519l28.667,-85.493c-7.203,-1.94 -14.346,-3.956 -17.81,-4.891c-6.735,-1.815 -33.125,-9.425 -54.25,-14.424c-4.85,22.209 -3.301,40.537 3.019,55.97" style="fill:#ebb325;fill-rule:nonzero;"/><path d="M261.963,162.11l-62.732,-21.033c-11.702,16.4 -21.326,35.973 -28.762,58.416c19.231,4.939 49.164,12.764 72.617,18.913l1.472,-4.388l17.405,-51.908Z" style="fill:#ebb325;fill-rule:nonzero;"/><path d="M177.752,156.094c3.513,-6.531 7.333,-12.65 11.422,-18.388l-7.575,-2.541c-1.448,7.247 -2.744,14.27 -3.847,20.929" style="fill:#ebb325;fill-rule:nonzero;"/></svg>